<svg width="60" height="44" viewBox="0 0 60 44" fill="none" xmlns="http://www.w3.org/2000/svg">
<g clip-path="url(#clip0)">
<path d="M26.3678 23.9323C26.2863 23.9323 26.2056 23.9158 26.1303 23.8838C26.055 23.8518 25.9866 23.805 25.9289 23.7459C25.8713 23.6868 25.8256 23.6166 25.7944 23.5394C25.7632 23.4621 25.7471 23.3794 25.7471 23.2958C25.7471 23.2122 25.7632 23.1294 25.7944 23.0522C25.8256 22.975 25.8713 22.9048 25.9289 22.8457C25.9866 22.7866 26.055 22.7397 26.1303 22.7078C26.2056 22.6758 26.2863 22.6593 26.3678 22.6593H27.7945V20.3063C27.7945 20.2227 27.8105 20.14 27.8417 20.0627C27.8729 19.9855 27.9186 19.9153 27.9763 19.8562C28.0339 19.7971 28.1023 19.7503 28.1776 19.7183C28.2529 19.6863 28.3336 19.6698 28.4151 19.6698C28.4967 19.6698 28.5774 19.6863 28.6527 19.7183C28.728 19.7503 28.7964 19.7971 28.854 19.8562C28.9117 19.9153 28.9574 19.9855 28.9886 20.0627C29.0198 20.14 29.0358 20.2227 29.0358 20.3063V22.6622H30.4653C30.6299 22.6622 30.7878 22.7292 30.9042 22.8486C31.0206 22.968 31.086 23.1299 31.086 23.2987C31.086 23.4675 31.0206 23.6294 30.9042 23.7487C30.7878 23.8681 30.6299 23.9352 30.4653 23.9352L26.3678 23.9323ZM32.4059 23.3433C32.2817 23.345 32.1598 23.3085 32.0561 23.2384C31.9523 23.1683 31.8714 23.0679 31.8239 22.9502C31.7764 22.8325 31.7645 22.7028 31.7896 22.578C31.8148 22.4533 31.8759 22.3391 31.965 22.2503C32.2739 21.9422 33.0996 20.914 32.8553 20.2343C32.6278 19.605 31.416 19.1773 29.5287 19.0578C26.7203 18.8807 25.1503 18.2068 24.715 16.9971C24.2095 15.5917 25.5576 14.2309 25.6208 14.1747C25.6784 14.1126 25.7476 14.063 25.8244 14.029C25.9012 13.995 25.9838 13.9772 26.0675 13.9768C26.1511 13.9764 26.2339 13.9933 26.311 14.0265C26.3881 14.0597 26.4578 14.1086 26.516 14.1701C26.5743 14.2317 26.6198 14.3046 26.6498 14.3847C26.6798 14.4647 26.6938 14.5501 26.6908 14.6358C26.6879 14.7215 26.668 14.8057 26.6326 14.8834C26.5971 14.961 26.5467 15.0305 26.4844 15.0877C26.2555 15.3238 25.6966 16.0496 25.8805 16.5565C25.9915 16.8632 26.5826 17.5962 29.6059 17.7863C32.1475 17.9476 33.5911 18.6028 34.0208 19.7937C34.5825 21.3647 33.0111 22.9819 32.83 23.1619C32.7152 23.2774 32.5611 23.3425 32.4003 23.3433H32.4059ZM28.4208 16.6155C28.2564 16.6171 28.0981 16.5517 27.9807 16.4337C27.8633 16.3157 27.7963 16.1548 27.7945 15.9862V12.5907C26.022 12.428 24.3727 11.5923 23.1699 10.2472C21.9672 8.9022 21.2978 7.14494 21.293 5.32C21.2933 5.15131 21.3589 4.98964 21.4752 4.87036C21.5915 4.75108 21.7491 4.68389 21.9136 4.68351H34.9139C35.0785 4.68351 35.2363 4.75057 35.3527 4.86994C35.4691 4.9893 35.5345 5.15119 35.5345 5.32C35.5298 7.14448 34.8607 8.90137 33.6586 10.2463C32.4564 11.5913 30.8078 12.4274 29.0358 12.5907V15.9862C29.034 16.1538 28.9678 16.3138 28.8516 16.4317C28.7354 16.5495 28.5785 16.6155 28.4151 16.6155H28.4208ZM22.5764 5.95937C22.73 7.43929 23.412 8.80863 24.4911 9.80377C25.5702 10.7989 26.9702 11.3495 28.4215 11.3495C29.8727 11.3495 31.2727 10.7989 32.3518 9.80377C33.4309 8.80863 34.1129 7.43929 34.2665 5.95937H22.5764ZM30.9947 14.6585C30.8354 14.6578 30.6825 14.5943 30.5676 14.4812C30.4527 14.3681 30.3846 14.2141 30.3774 14.0509C30.3702 13.8877 30.4244 13.728 30.5289 13.6047C30.6333 13.4814 30.78 13.4039 30.9385 13.3884C31.166 13.3668 36.5175 12.7923 37.3839 7.29571C37.6198 5.79953 37.3502 4.61727 36.5596 3.68414C35.8799 2.88205 34.8184 2.2686 33.4043 1.86107C32.8988 2.26428 31.3598 3.36445 29.4093 3.54158C29.099 3.56894 28.8069 3.58334 28.5387 3.58334C27.5122 3.58334 26.7792 3.38029 26.292 2.96269C26.1136 2.80928 25.9679 2.61996 25.8638 2.40644C25.7597 2.19292 25.6994 1.95976 25.6868 1.72139C25.6703 1.53907 25.6911 1.35523 25.7479 1.18165C25.8048 1.00806 25.8963 0.848567 26.0167 0.713375C26.5068 0.158966 27.4041 0.0250452 28.0697 0.012085C28.2326 0.012085 28.4039 0.012085 28.5822 0.012085C33.9548 0.012085 36.3925 1.55867 37.4906 2.85613C38.5241 4.07583 38.8948 5.63969 38.6041 7.50596C37.5819 13.9861 31.1098 14.6585 31.0452 14.6643L30.9947 14.6585ZM28.6075 1.27786C28.4334 1.27786 28.2649 1.27786 28.1048 1.27786C27.4982 1.29082 27.0629 1.43051 26.9477 1.56587C26.9351 1.58027 26.9309 1.58459 26.9337 1.62059C26.9351 1.69119 26.9511 1.76067 26.9807 1.82446C27.0102 1.88825 27.0526 1.9449 27.105 1.99067C27.2721 2.13468 27.6569 2.30892 28.5359 2.30892C28.769 2.30892 29.0274 2.2974 29.304 2.27148C30.1406 2.17862 30.9502 1.91313 31.6842 1.49099C30.6609 1.34194 29.6284 1.26974 28.5949 1.27498L28.6075 1.27786Z" fill="url(#paint0_linear)"/>
</g>
<path d="M6.46484 29.4094C6.47542 29.8749 6.36502 30.3352 6.14443 30.7452C5.92815 31.127 5.62581 31.4531 5.26143 31.6976C4.8615 31.9658 4.41612 32.159 3.94703 32.2678C3.41641 32.3964 2.87203 32.4595 2.32607 32.4557H1.94764V35.7544H0V26.4866H2.53169C3.05396 26.4828 3.57483 26.5412 4.08325 26.6607C4.5274 26.7622 4.94931 26.9439 5.32829 27.1968C5.67335 27.4294 5.95722 27.7419 6.15579 28.1076C6.3674 28.5083 6.47374 28.9563 6.46484 29.4094V29.4094ZM4.51593 29.4094C4.51593 28.9258 4.33765 28.5709 3.98109 28.3447C3.62452 28.1185 3.13971 28.005 2.52665 28.0041H1.95648V30.9395H2.42826C3.07663 30.9395 3.58667 30.8133 3.95837 30.5611C4.33008 30.3088 4.51425 29.9249 4.51088 29.4094H4.51593Z" fill="#134E9E"/>
<path d="M7.58618 35.7543V25.9303H9.4922V29.7991C9.69852 29.4883 9.98423 29.2383 10.3197 29.075C10.6567 28.9154 11.0254 28.8344 11.3982 28.8379C11.7901 28.8267 12.1775 28.9231 12.5184 29.1167C12.8267 29.3005 13.0863 29.5558 13.2752 29.8609C13.4802 30.1955 13.6262 30.5629 13.7067 30.947C13.8011 31.3693 13.848 31.8009 13.8467 32.2337V35.7543H11.9394V32.2223C11.9394 31.6109 11.8444 31.1484 11.6543 30.8347C11.4642 30.5211 11.1514 30.3634 10.7158 30.3617C10.4607 30.3551 10.2092 30.4226 9.99173 30.556C9.79655 30.6765 9.62546 30.8321 9.48715 31.0151V35.7606L7.58618 35.7543Z" fill="#134E9E"/>
<path d="M19.3151 35.0304C19.0492 35.2825 18.7436 35.4892 18.4107 35.6422C18.0268 35.8169 17.6087 35.9031 17.1871 35.8945C16.9111 35.8981 16.6369 35.8484 16.3798 35.7482C16.1497 35.6581 15.9412 35.5206 15.768 35.3445C15.5988 35.1708 15.4663 34.9649 15.3782 34.739C15.2831 34.4955 15.2359 34.236 15.2394 33.9746C15.2394 33.3523 15.4497 32.8792 15.8702 32.5555C16.2906 32.2317 16.8612 32.0459 17.5819 31.9979C17.8594 31.9803 18.1466 31.9664 18.4435 31.9563C18.7403 31.9462 19.0094 31.937 19.2508 31.9285V31.6927C19.2508 31.2562 19.1444 30.9244 18.9316 30.6974C18.7172 30.4703 18.3842 30.3568 17.9225 30.3568C17.5846 30.3554 17.2479 30.3978 16.9209 30.4829C16.631 30.5567 16.3507 30.6643 16.0859 30.8034L15.7074 29.4675C16.073 29.258 16.4662 29.1008 16.8755 29.0008C17.3264 28.8915 17.789 28.8377 18.253 28.8406C19.152 28.8406 19.8592 29.0865 20.3747 29.5785C20.8902 30.0705 21.1476 30.7987 21.1467 31.7633V35.757H19.3101L19.3151 35.0304ZM17.8821 34.599C18.141 34.6017 18.3979 34.5546 18.639 34.4602C18.8584 34.3739 19.0645 34.2567 19.2508 34.1121V33.0373L18.6201 33.0929C18.3968 33.1118 18.1937 33.1345 18.0083 33.1622C17.7724 33.1935 17.5451 33.2715 17.3397 33.3918C17.2645 33.4546 17.2034 33.5325 17.1604 33.6206C17.1175 33.7086 17.0936 33.8047 17.0904 33.9026C17.0872 34.0005 17.1047 34.098 17.1418 34.1887C17.1789 34.2793 17.2347 34.3611 17.3056 34.4287C17.4732 34.5487 17.6763 34.6087 17.8821 34.599Z" fill="#134E9E"/>
<path d="M27.0515 30.6053H26.7323C26.3263 30.5919 25.9223 30.6682 25.5491 30.8286C25.2424 30.9675 24.9804 31.1889 24.7923 31.4681V35.757H22.8862V28.9781H24.7229V30.1739C24.8312 29.8081 25.047 29.4833 25.3422 29.2417C25.6248 29.0197 26.0032 28.9087 26.4775 28.9087C26.6698 28.9058 26.8617 28.9292 27.0477 28.9781L27.0515 30.6053Z" fill="#134E9E"/>
<path d="M35.5257 30.3557C35.2469 30.3502 34.9744 30.4391 34.7525 30.6079C34.5529 30.7571 34.3772 30.9357 34.2315 31.1377C34.2593 31.3043 34.282 31.4834 34.3009 31.6726C34.3198 31.8618 34.3286 32.051 34.3286 32.2365V35.7571H32.4226V32.2251C32.4226 31.5944 32.3343 31.126 32.1577 30.8199C31.9824 30.5133 31.6847 30.3607 31.2671 30.3607C31.0141 30.3509 30.7641 30.4187 30.5506 30.555C30.3662 30.68 30.2041 30.8352 30.0713 31.0141V35.7596H28.1615V28.9782H29.9969V29.8965C30.1987 29.5548 30.493 29.2771 30.8458 29.0955C31.1969 28.9246 31.5831 28.8382 31.9735 28.8432C32.3867 28.8264 32.7949 28.9384 33.1416 29.1636C33.4528 29.3825 33.7061 29.6739 33.8796 30.0125C34.1388 29.6272 34.4934 29.3156 34.9089 29.1081C35.3111 28.927 35.7482 28.8365 36.1893 28.8432C36.5736 28.8301 36.9548 28.917 37.2955 29.0955C37.598 29.2688 37.8518 29.5157 38.0335 29.8132C38.2332 30.1457 38.374 30.5101 38.4497 30.8905C38.5409 31.3324 38.5853 31.7827 38.5822 32.2339V35.7546H36.6762V32.2226C36.6762 31.5919 36.5883 31.1234 36.4125 30.8173C36.2368 30.5112 35.9412 30.3573 35.5257 30.3557Z" fill="#134E9E"/>
<path d="M44.0556 35.0304C43.7892 35.282 43.4838 35.4886 43.1511 35.6422C42.7669 35.817 42.3483 35.9032 41.9263 35.8945C41.6507 35.898 41.377 35.8483 41.1202 35.7482C40.8899 35.658 40.681 35.5205 40.5072 35.3445C40.3388 35.1701 40.2064 34.9644 40.1174 34.739C40.0229 34.4954 39.9758 34.2359 39.9786 33.9746C39.9786 33.3523 40.1889 32.8792 40.6094 32.5555C41.0256 32.23 41.597 32.0446 42.3198 31.9979C42.599 31.9803 42.8866 31.9664 43.1827 31.9563C43.4791 31.9475 43.7491 31.9386 43.99 31.9285V31.6927C43.99 31.2562 43.8832 30.9244 43.6696 30.6974C43.456 30.4703 43.1221 30.3568 42.668 30.3568C42.3301 30.3554 41.9934 30.3978 41.6664 30.4829C41.3764 30.5565 41.0961 30.6641 40.8314 30.8034L40.4529 29.4675C40.8189 29.258 41.2126 29.1008 41.6223 29.0008C42.0732 28.8915 42.5358 28.8377 42.9998 28.8406C43.8996 28.8406 44.6068 29.0865 45.1215 29.5785C45.6361 30.0705 45.8935 30.7987 45.8935 31.7633V35.757H44.0556V35.0304ZM42.6226 34.599C42.8814 34.6017 43.1384 34.5546 43.3795 34.4602C43.5988 34.3736 43.8047 34.2564 43.9912 34.1121V33.0373L43.3605 33.0929C43.1373 33.1118 42.9329 33.1345 42.7475 33.1622C42.512 33.1935 42.2851 33.2715 42.0802 33.3918C41.9942 33.4506 41.9255 33.5313 41.8812 33.6256C41.8368 33.7198 41.8184 33.8242 41.8279 33.9279C41.8207 34.0232 41.8366 34.1187 41.8741 34.2065C41.9117 34.2944 41.9698 34.3719 42.0436 34.4325C42.2122 34.551 42.4156 34.6096 42.6213 34.599H42.6226Z" fill="#134E9E"/>
<path d="M50.7335 28.8379C51.0812 28.8396 51.4281 28.8747 51.7691 28.9426C52.0817 28.9971 52.3844 29.0978 52.6673 29.2416L52.4579 30.6052C52.0016 30.4067 51.5085 30.3074 51.011 30.3138C50.3433 30.3138 49.8517 30.4967 49.5364 30.8625C49.221 31.2284 49.0633 31.727 49.0633 32.3586C49.0633 32.9893 49.221 33.4901 49.5364 33.861C49.8517 34.2318 50.3433 34.4177 51.011 34.4185C51.5086 34.4245 52.0017 34.3248 52.4579 34.1259L52.6673 35.4895C52.3844 35.6333 52.0817 35.734 51.7691 35.7884C51.4281 35.8564 51.0812 35.8915 50.7335 35.8931C50.2057 35.9032 49.681 35.8111 49.1882 35.6219C48.7662 35.4562 48.3844 35.2025 48.0681 34.8777C47.7635 34.5573 47.5312 34.1753 47.3869 33.7575C47.0808 32.8505 47.0808 31.868 47.3869 30.9609C47.5303 30.5445 47.7627 30.1644 48.0681 29.8471C48.3858 29.5258 48.7674 29.2748 49.1882 29.1104C49.6807 28.9201 50.2056 28.8276 50.7335 28.8379V28.8379Z" fill="#134E9E"/>
<path d="M54.8508 38.6204L55.7691 35.9626L53.2791 28.978H55.2545L56.6874 34.0149L58.0649 28.978H60L56.7568 38.6204H54.8508Z" fill="#134E9E"/>
<path d="M21.25 42.4665L21.7432 40.259H22.5455L21.6625 43.4416H20.864L20.2194 41.0525L19.5837 43.4416H18.7864L17.9034 40.259H18.7007L19.1926 42.4665L19.7855 40.259H20.6559L21.25 42.4665Z" fill="#CECECE"/>
<path d="M25.5466 42.8248H24.328L24.1325 43.4416H23.3252L24.5097 40.259H25.37L26.5557 43.4416H25.7471L25.5466 42.8248ZM24.5286 42.2042H25.346L24.9398 40.8582L24.5286 42.2042Z" fill="#CECECE"/>
<path d="M28.6662 40.259V42.821H29.8368V43.4416H27.8828V40.259H28.6662Z" fill="#CECECE"/>
<path d="M31.9698 40.259V42.821H33.1404V43.4416H31.189V40.259H31.9698Z" fill="#CECECE"/>
<path d="M34.4925 40.259H36.4755V40.8809H35.2772V41.5205H36.4125V42.1424H35.2772V42.821H36.4869V43.4416H34.4888L34.4925 40.259Z" fill="#CECECE"/>
<path d="M40.2371 40.259V40.8809H39.3882V43.4416H38.6048V40.8809H37.7483V40.259H40.2371Z" fill="#CECECE"/>
<defs>
<linearGradient id="paint0_linear" x1="29.9991" y1="0.00200481" x2="29.9991" y2="23.9323" gradientUnits="userSpaceOnUse">
<stop stop-color="#008495"/>
<stop offset="0.11" stop-color="#008495"/>
<stop offset="0.93" stop-color="#134E9B"/>
<stop offset="1" stop-color="#134E9B"/>
</linearGradient>
<clipPath id="clip0">
<rect width="17.4038" height="23.9303" fill="white" transform="translate(21.2981)"/>
</clipPath>
</defs>
</svg>
