<svg width="94" height="60" viewBox="0 0 94 60" fill="none" xmlns="http://www.w3.org/2000/svg">
<path d="M43.6323 20.5803L55.243 19.7914L55.7541 19.7551L58.4413 19.5733C58.6284 19.5607 58.8029 19.4736 58.9264 19.3311C59.0499 19.1886 59.1124 19.0024 59.1 18.8135L58.0975 3.86651C58.0913 3.77302 58.067 3.68169 58.0258 3.59772C57.9846 3.51376 57.9275 3.43882 57.8576 3.3772C57.7877 3.31557 57.7065 3.26847 57.6186 3.23859C57.5306 3.2087 57.4377 3.19663 57.3452 3.20305L54.658 3.38482L54.1469 3.42117L42.5362 4.21006C42.4436 4.21605 42.353 4.24051 42.2697 4.28201C42.1865 4.3235 42.1122 4.38123 42.0511 4.45185C41.9901 4.52248 41.9434 4.60461 41.914 4.69351C41.8845 4.78241 41.8727 4.87633 41.8793 4.96986L42.8746 19.9168C42.881 20.0107 42.9057 20.1024 42.9472 20.1866C42.9888 20.2709 43.0465 20.346 43.1169 20.4076C43.1873 20.4693 43.2691 20.5163 43.3575 20.5459C43.446 20.5755 43.5394 20.5872 43.6323 20.5803ZM43.3389 5.59333L48.5998 5.22979L48.7654 7.72186C48.7742 7.84728 48.8317 7.9641 48.9254 8.04685C49.0192 8.1296 49.1415 8.17155 49.2658 8.16356L51.1988 8.03087C51.2603 8.02694 51.3204 8.01079 51.3757 7.98333C51.431 7.95587 51.4804 7.91766 51.521 7.87087C51.5617 7.82409 51.5927 7.76966 51.6125 7.71071C51.6323 7.65177 51.6403 7.58946 51.6361 7.52736L51.4705 5.03348L54.2459 4.85171L54.757 4.81717L56.7368 4.68266L57.6368 18.2064L55.6569 18.3409L55.144 18.3772L44.2388 19.1098L43.3389 5.59333ZM39.7393 25.6735C39.753 25.8822 39.7052 26.0904 39.6019 26.2717C39.4985 26.4529 39.3443 26.5992 39.1586 26.692C38.973 26.7847 38.7643 26.8198 38.5589 26.7928C38.3535 26.7658 38.1606 26.6779 38.0047 26.5403C37.8487 26.4026 37.7367 26.2213 37.6828 26.0193C37.6288 25.8174 37.6353 25.6038 37.7016 25.4056C37.7678 25.2074 37.8907 25.0334 38.0548 24.9058C38.2189 24.7781 38.4167 24.7024 38.6234 24.6883C38.7607 24.6789 38.8985 24.697 39.029 24.7414C39.1594 24.7859 39.2799 24.8558 39.3835 24.9473C39.4871 25.0388 39.5719 25.15 39.633 25.2746C39.694 25.3993 39.7301 25.5348 39.7393 25.6735ZM60.2357 21.9527L42.0791 23.1887C41.7142 22.6925 41.2484 22.281 40.713 21.9817L39.5215 4.10645C39.4416 2.9424 38.9083 1.85772 38.0383 1.08986C37.1684 0.321988 36.0327 -0.0665285 34.8797 0.00934401L32.9737 0.140219C32.672 0.156129 32.3765 0.232473 32.1043 0.364808C31.832 0.497143 31.5886 0.682826 31.3881 0.911056C31.1876 1.13929 31.034 1.40551 30.9364 1.69423C30.8387 1.98295 30.7988 2.2884 30.8191 2.59282C30.8394 2.89724 30.9194 3.19455 31.0545 3.46745C31.1896 3.74035 31.3771 3.98339 31.6061 4.18243C31.8351 4.38147 32.101 4.53253 32.3883 4.62683C32.6756 4.72114 32.9786 4.7568 33.2797 4.73174L34.9877 4.6154L36.1666 22.2889C35.6566 22.6683 35.2374 23.1586 34.9401 23.7235C34.6427 24.2884 34.4749 24.9135 34.4488 25.5527C34.4228 26.1919 34.5392 26.8289 34.7896 27.4166C35.0399 28.0043 35.4178 28.5276 35.8952 28.9481C36.3727 29.3685 36.9376 29.6752 37.5481 29.8457C38.1587 30.0161 38.7994 30.0458 39.4229 29.9327C40.0464 29.8195 40.6367 29.5664 41.1503 29.1919C41.664 28.8175 42.0878 28.3313 42.3904 27.7693L60.5399 26.5351C60.8516 26.5345 61.1598 26.4693 61.4456 26.3435C61.7313 26.2178 61.9885 26.0342 62.2011 25.8041C62.4138 25.5739 62.5775 25.3022 62.682 25.0057C62.7865 24.7091 62.8297 24.394 62.8089 24.08C62.788 23.7659 62.7036 23.4595 62.5608 23.1797C62.418 22.8998 62.2199 22.6526 61.9787 22.4532C61.7375 22.2538 61.4584 22.1065 61.1586 22.0204C60.8588 21.9343 60.5447 21.9113 60.2357 21.9527ZM33.1789 3.17397C32.9872 3.18348 32.7995 3.11664 32.6561 2.9878C32.5127 2.85897 32.4251 2.67844 32.4121 2.48505C32.3991 2.29166 32.4618 2.10085 32.5867 1.95366C32.7116 1.80647 32.8887 1.71467 33.0799 1.69799L34.9877 1.56712C35.7321 1.51771 36.4655 1.76834 37.0272 2.26409C37.589 2.75984 37.9332 3.46026 37.9844 4.21187L39.1345 21.4801C38.6449 21.4214 38.1487 21.4553 37.6713 21.58L36.5212 4.31185C36.51 4.1326 36.4638 3.95736 36.3852 3.79622C36.3067 3.63509 36.1973 3.49124 36.0635 3.37297C35.9297 3.25469 35.774 3.16434 35.6054 3.1071C35.4368 3.04986 35.2587 3.02687 35.0813 3.03945L33.1789 3.17397ZM38.8646 28.44C38.3341 28.4775 37.8045 28.3553 37.3427 28.0889C36.881 27.8224 36.5079 27.4237 36.2705 26.9431C36.0332 26.4624 35.9423 25.9215 36.0093 25.3887C36.0763 24.8559 36.2983 24.3552 36.6471 23.9498C36.9959 23.5444 37.4559 23.2525 37.969 23.1112C38.482 22.9698 39.025 22.9852 39.5294 23.1555C40.0338 23.3258 40.4768 23.6433 40.8025 24.0679C41.1282 24.4925 41.3219 25.005 41.3591 25.5408C41.4071 26.2582 41.1714 26.9655 40.7038 27.5076C40.2362 28.0497 39.5747 28.3824 38.8646 28.4328V28.44ZM60.4373 24.9864L42.889 26.1788C42.9469 25.685 42.9139 25.1846 42.7918 24.7028L60.3383 23.5086C60.5323 23.4951 60.7237 23.56 60.8704 23.689C61.017 23.8181 61.107 24.0006 61.1203 24.1966C61.1337 24.3926 61.0694 24.5859 60.9417 24.734C60.8139 24.8821 60.6331 24.9729 60.4391 24.9864H60.4373Z" fill="url(#paint0_linear)"/>
<path d="M12.7658 45.8408L14.9586 36.7422H17.6002L14.1405 49.1352H11.5007L8.80176 39.4225L6.10287 49.1352H3.45965L0 36.7422H2.64155L4.8344 45.8408L7.32918 36.7422H10.2676L12.7658 45.8408Z" fill="#134E9E"/>
<path d="M19.1116 49.1369V36H21.6604V41.1734C21.9358 40.7574 22.318 40.423 22.7669 40.2052C23.2175 39.9918 23.7106 39.8834 24.2091 39.8881C24.7331 39.8731 25.2512 40.002 25.707 40.2609C26.1193 40.5067 26.4664 40.848 26.7191 41.2561C26.9919 41.7042 27.1869 42.1953 27.296 42.7084C27.4209 43.2734 27.4831 43.8504 27.4815 44.429V49.1369H24.9328V44.4138C24.9328 43.5963 24.8057 42.9778 24.5515 42.5583C24.2974 42.1389 23.8785 41.928 23.2949 41.9258C22.9544 41.9171 22.6186 42.0074 22.3283 42.1855C22.0673 42.3466 21.8385 42.5548 21.6536 42.7995V49.1453L19.1116 49.1369Z" fill="#134E9E"/>
<path d="M38.5537 44.6145C38.5595 45.2417 38.4556 45.8651 38.2467 46.4565C38.052 47.0125 37.7448 47.5224 37.3443 47.9544C36.9361 48.3932 36.4377 48.7385 35.8835 48.9665C34.5942 49.45 33.1734 49.45 31.8841 48.9665C31.3299 48.7385 30.8315 48.3932 30.4233 47.9544C30.0234 47.522 29.7163 47.0122 29.5209 46.4565C29.1115 45.2626 29.1115 43.9664 29.5209 42.7725C29.7167 42.2171 30.0237 41.7074 30.4233 41.2747C30.8337 40.8385 31.3315 40.4936 31.8841 40.2626C33.1709 39.7655 34.5967 39.7655 35.8835 40.2626C36.4319 40.4913 36.9257 40.8332 37.3327 41.2661C37.7396 41.6989 38.0506 42.2128 38.245 42.7742C38.454 43.3651 38.5584 43.9878 38.5537 44.6145ZM36.005 44.6145C36.0062 44.2551 35.9689 43.8966 35.8936 43.5451C35.8277 43.225 35.7049 42.9194 35.531 42.6427C35.365 42.3836 35.138 42.1692 34.8697 42.0185C34.5618 41.8665 34.223 41.7874 33.8796 41.7874C33.5362 41.7874 33.1974 41.8665 32.8894 42.0185C32.6251 42.1714 32.4012 42.3855 32.2366 42.6427C32.0627 42.9194 31.9399 43.225 31.874 43.5451C31.7987 43.8966 31.7613 44.2551 31.7626 44.6145C31.7609 44.9712 31.7983 45.327 31.874 45.6755C31.9411 45.9921 32.0639 46.2942 32.2366 46.5679C32.4007 46.8255 32.6247 47.0396 32.8894 47.192C33.197 47.3451 33.536 47.4248 33.8796 47.4248C34.2232 47.4248 34.5621 47.3451 34.8697 47.192C35.1385 47.042 35.3657 46.8275 35.531 46.5679C35.7037 46.2942 35.8265 45.9921 35.8936 45.6755C35.971 45.3272 36.01 44.9714 36.01 44.6145H36.005Z" fill="#134E9E"/>
<path d="M42.7961 46.5156C42.7769 46.7428 42.8365 46.9698 42.9648 47.1583C43.0433 47.2365 43.1382 47.2963 43.2426 47.3334C43.347 47.3704 43.4584 47.3838 43.5687 47.3725C43.6817 47.3725 43.7981 47.3725 43.9229 47.3539C44.0477 47.3354 44.1641 47.3219 44.2754 47.2983L44.3699 49.0829C44.1132 49.1544 43.8516 49.2074 43.5872 49.2415C43.2855 49.2847 42.9811 49.3067 42.6764 49.3073C42.2809 49.319 41.8875 49.246 41.5226 49.0931C41.2291 48.9633 40.9706 48.7655 40.7686 48.5162C40.5765 48.2752 40.4374 47.9964 40.3604 47.6981C40.2791 47.3915 40.2382 47.0756 40.2389 46.7585V36.0034H42.7877L42.7961 46.5156Z" fill="#134E9E"/>
<path d="M49.7169 39.8881C50.2607 39.8794 50.8011 39.9744 51.3092 40.1682C51.752 40.3397 52.1495 40.6103 52.4715 40.9593C52.7898 41.315 53.0306 41.7333 53.1782 42.1873C53.3461 42.7069 53.4276 43.2505 53.4194 43.7965C53.4192 44.0485 53.404 44.3003 53.3739 44.5505C53.346 44.7861 53.2992 45.0191 53.2339 45.2471H47.8563C47.8511 45.8355 48.0714 46.4035 48.472 46.8344C48.8544 47.2269 49.4678 47.4237 50.3124 47.4248C50.7873 47.4254 51.2613 47.3802 51.7276 47.2899C52.151 47.211 52.5633 47.0813 52.9556 46.9036L53.271 48.6343C52.7888 48.8676 52.2786 49.0376 51.7529 49.1403C51.1712 49.2594 50.5789 49.3187 49.9851 49.3174C49.3004 49.3295 48.6193 49.2151 47.9761 48.9801C47.4207 48.7793 46.9171 48.4573 46.5019 48.0374C46.0867 47.6175 45.7703 47.1103 45.5758 46.5527C45.3586 45.9404 45.2513 45.2946 45.2587 44.645C45.2516 43.9846 45.3554 43.3278 45.5657 42.7018C45.7526 42.1433 46.0536 41.6297 46.4496 41.1937C46.8426 40.7734 47.3219 40.4431 47.8547 40.2255C48.4473 39.992 49.08 39.8774 49.7169 39.8881ZM49.5685 41.6003C49.3389 41.5878 49.1098 41.6313 48.9009 41.7271C48.6919 41.8229 48.5095 41.9681 48.3691 42.1502C48.0755 42.5551 47.904 43.0357 47.8749 43.535H50.9837C51.0444 42.9531 50.9584 42.4842 50.7222 42.1316C50.4861 41.7791 50.1015 41.6003 49.5685 41.6003V41.6003Z" fill="#134E9E"/>
<path d="M61.663 46.3148C61.6728 46.7503 61.5762 47.1817 61.3816 47.5714C61.187 47.9612 60.9003 48.2976 60.5463 48.5515C60.1755 48.8165 59.7594 49.0115 59.3184 49.1267C58.8144 49.261 58.2947 49.3268 57.7732 49.3224C57.2578 49.3173 56.7439 49.2643 56.2383 49.1638C55.7441 49.0758 55.2606 48.9356 54.796 48.7455L55.1688 46.9406C55.5665 47.1026 55.9773 47.2301 56.3968 47.3218C56.8184 47.4148 57.2488 47.4618 57.6805 47.4618C58.04 47.4735 58.398 47.4097 58.7313 47.2746C58.8634 47.2208 58.9751 47.1265 59.0503 47.0053C59.1254 46.884 59.1602 46.7421 59.1497 46.5999C59.1539 46.4667 59.117 46.3356 59.0439 46.2242C58.9709 46.1128 58.8653 46.0266 58.7415 45.9775C58.4682 45.8481 58.1084 45.6901 57.6619 45.5035C57.3032 45.3539 56.9557 45.2015 56.6195 45.0463C56.3005 44.9019 56.003 44.714 55.7356 44.488C55.4845 44.275 55.2762 44.0162 55.1216 43.7255C54.9565 43.3873 54.8771 43.0137 54.8905 42.6376C54.8799 42.2124 54.9725 41.7911 55.1604 41.4096C55.3343 41.0677 55.5898 40.774 55.9042 40.5544C56.2424 40.3189 56.6209 40.1474 57.0209 40.0483C57.4735 39.9333 57.9389 39.8766 58.4058 39.8796C58.9085 39.8779 59.4102 39.9253 59.9037 40.0213C60.3883 40.1206 60.8556 40.2911 61.2902 40.5274L60.8989 42.3441C60.5347 42.182 60.1586 42.0483 59.7738 41.9443C59.3888 41.8405 58.9918 41.7878 58.593 41.7874C58.2999 41.7777 58.0072 41.8182 57.7277 41.9072C57.6248 41.9432 57.5369 42.0125 57.4779 42.1042C57.4189 42.1959 57.3923 42.3047 57.4021 42.4132C57.4028 42.5346 57.4405 42.6529 57.5101 42.7524C57.5797 42.8518 57.678 42.9277 57.7918 42.9699C58.0533 43.093 58.3619 43.2347 58.7229 43.3966C58.9827 43.5091 59.2835 43.6356 59.6254 43.7762C59.9658 43.9193 60.2876 44.1034 60.5835 44.3244C60.8817 44.5484 61.1395 44.8217 61.3459 45.1324C61.5681 45.4856 61.6786 45.8977 61.663 46.3148V46.3148Z" fill="#134E9E"/>
<path d="M68.3799 48.1686C68.0237 48.505 67.6152 48.7813 67.1704 48.9867C66.6566 49.2202 66.0969 49.3355 65.5325 49.324C65.1635 49.3289 64.7969 49.2625 64.453 49.1284C64.1453 49.008 63.8666 48.8241 63.6349 48.5886C63.4092 48.3559 63.2321 48.0806 63.1137 47.7789C62.9864 47.4533 62.9234 47.1062 62.9281 46.7567C62.9281 45.9257 63.2092 45.2931 63.7715 44.859C64.3338 44.425 65.0968 44.1764 66.0605 44.1135C66.4316 44.0899 66.8162 44.0713 67.2143 44.0578C67.6124 44.0443 67.9717 44.0319 68.2922 44.0207V43.7053C68.2922 43.1216 68.1499 42.678 67.8654 42.3744C67.5809 42.0707 67.1345 41.9189 66.5261 41.9189C66.0737 41.9169 65.6229 41.9736 65.1851 42.0876C64.7978 42.186 64.4235 42.3298 64.0701 42.5161L63.564 40.7297C64.0529 40.4495 64.5787 40.2394 65.126 40.1056C65.729 39.9595 66.3476 39.8875 66.968 39.8914C68.1713 39.8914 69.117 40.2203 69.8052 40.8782C70.4934 41.536 70.8381 42.5099 70.8392 43.7997V49.1402H68.3799V48.1686ZM66.462 47.5917C66.8081 47.5953 67.1517 47.5323 67.4741 47.4061C67.7677 47.291 68.0432 47.1342 68.2922 46.9406V45.5034L67.4488 45.5776C67.1519 45.6029 66.8786 45.6333 66.6307 45.6704C66.3152 45.7122 66.0112 45.8166 65.7366 45.9774C65.622 46.0563 65.5303 46.1643 65.471 46.2902C65.4118 46.4162 65.387 46.5556 65.3993 46.6943C65.3897 46.8217 65.4109 46.9494 65.4611 47.0669C65.5113 47.1843 65.589 47.2879 65.6877 47.369C65.9134 47.5282 66.1862 47.6066 66.462 47.5917V47.5917Z" fill="#134E9E"/>
<path d="M75.5792 46.5156C75.5624 46.7438 75.625 46.9709 75.7563 47.1583C75.8348 47.2365 75.9297 47.2963 76.0341 47.3334C76.1386 47.3704 76.2499 47.3838 76.3602 47.3725C76.4732 47.3725 76.5913 47.3725 76.7144 47.3539C76.8375 47.3354 76.9573 47.3219 77.0686 47.2983L77.1614 49.0829C76.9052 49.1543 76.6442 49.2073 76.3804 49.2415C76.0781 49.2848 75.7732 49.3068 75.4679 49.3073C75.0724 49.319 74.679 49.246 74.3141 49.0931C74.0206 48.9633 73.7621 48.7655 73.5601 48.5162C73.3685 48.2749 73.2294 47.9962 73.1518 47.6981C73.0705 47.3915 73.0297 47.0756 73.0304 46.7585V36.0034H75.5792V46.5156Z" fill="#134E9E"/>
<path d="M82.5018 39.8881C83.045 39.8793 83.585 39.9744 84.0925 40.1682C84.5352 40.3397 84.9328 40.6103 85.2547 40.9593C85.5737 41.3146 85.8144 41.733 85.9615 42.1873C86.1299 42.7068 86.212 43.2504 86.2044 43.7965C86.2036 44.0485 86.1878 44.3003 86.1572 44.5505C86.1301 44.7862 86.0832 45.0193 86.0171 45.2471H80.6396C80.6352 45.8353 80.8554 46.4031 81.2553 46.8344C81.6376 47.2269 82.2516 47.4237 83.0973 47.4248C83.5717 47.4254 84.0451 47.3802 84.5108 47.2899C84.9342 47.211 85.3465 47.0813 85.7388 46.9036L86.0543 48.6343C85.5721 48.8676 85.0618 49.0376 84.5361 49.1403C83.9544 49.2594 83.3621 49.3187 82.7683 49.3174C82.0836 49.3295 81.4026 49.2151 80.7594 48.9801C80.204 48.7793 79.7004 48.4573 79.2852 48.0374C78.8699 47.6175 78.5536 47.1103 78.359 46.5527C78.1419 45.9404 78.0346 45.2946 78.0419 44.645C78.0349 43.9846 78.1386 43.3278 78.3489 42.7018C78.5358 42.1433 78.8368 41.6297 79.2328 41.1937C79.6258 40.7734 80.1052 40.4431 80.6379 40.2255C81.2311 39.992 81.8644 39.8774 82.5018 39.8881V39.8881ZM82.3517 41.6003C82.1222 41.5878 81.8931 41.6313 81.6841 41.7271C81.4752 41.8229 81.2927 41.9681 81.1524 42.1502C80.8586 42.5549 80.6876 43.0357 80.6598 43.535H83.7669C83.8277 42.9531 83.7416 42.4842 83.5055 42.1316C83.2693 41.7791 82.8847 41.6003 82.3517 41.6003V41.6003Z" fill="#134E9E"/>
<path d="M93.6281 42.2513H93.1929C92.65 42.2338 92.1098 42.3357 91.6106 42.5498C91.2004 42.7354 90.8499 43.0315 90.5986 43.4051V49.1402H88.0481V40.0787H90.5041V41.6777C90.6489 41.1886 90.9375 40.7543 91.3323 40.4312C91.7102 40.1343 92.2162 39.9859 92.8504 39.9859C93.1082 39.9822 93.3652 40.0134 93.6146 40.0787L93.6281 42.2513Z" fill="#134E9E"/>
<path d="M35.708 58.1124L36.3675 55.1605H37.4403L36.2595 59.4163H35.1918L34.3298 56.2215L33.4662 59.4163H32.4001L31.2194 55.1605H32.2989L32.9568 58.1124L33.7496 55.1605H34.9135L35.708 58.1124Z" fill="#CECECE"/>
<path d="M41.4534 58.5915H39.8239L39.5625 59.4163H38.4829L40.0668 55.1605H41.2172L42.8028 59.4163H41.7216L41.4534 58.5915ZM40.0921 57.7616H41.1852L40.642 55.9651L40.0921 57.7616Z" fill="#CECECE"/>
<path d="M45.6249 55.1605V58.5864H47.1903V59.4163H44.5774V55.1605H45.6249Z" fill="#CECECE"/>
<path d="M50.0425 55.1605V58.5864H51.6079V59.4163H48.9984V55.1605H50.0425Z" fill="#CECECE"/>
<path d="M53.4162 55.1605H56.0679V55.9921H54.4654V56.8473H55.9835V57.6789H54.4654V58.5864H56.083V59.4163H53.4111L53.4162 55.1605Z" fill="#CECECE"/>
<path d="M61.0978 55.1605V55.9921H59.9626V59.4163H58.9151V55.9921H57.7698V55.1605H61.0978Z" fill="#CECECE"/>
<defs>
<linearGradient id="paint0_linear" x1="46.7588" y1="0.00262037" x2="46.7574" y2="30.0044" gradientUnits="userSpaceOnUse">
<stop stop-color="#008495"/>
<stop offset="0.11" stop-color="#008495"/>
<stop offset="0.93" stop-color="#134E9B"/>
<stop offset="1" stop-color="#134E9B"/>
</linearGradient>
</defs>
</svg>
