<svg width="100" height="45" viewBox="0 0 100 45" fill="none" xmlns="http://www.w3.org/2000/svg">
<path d="M49.0406 4.70404L48.6047 4.76925L48.1825 4.92257L47.8106 5.14568L47.4697 5.45691L47.2157 5.80016L47.1116 5.99238L46.9617 6.41343L46.8942 6.85051V7.08049L46.9605 7.51756L47.0635 7.83221L47.2729 8.22238L47.4765 8.48211L47.7408 8.73382L48.0898 8.96495L48.5006 9.13314L48.9342 9.2201H49.377L49.8141 9.132L50.2214 8.9638L50.5921 8.71666L50.8473 8.47409L51.099 8.12855L51.2912 7.72352L51.3965 7.2933L51.4194 7.08163L51.4102 6.7441C51.4011 6.66858 51.3908 6.60108 51.3759 6.52556C51.3725 6.49582 51.3633 6.45691 51.3519 6.41229L51.2512 6.10222L51.0407 5.70977L50.8313 5.44318L50.5052 5.14684L50.1276 4.91914L49.7088 4.76925L49.3804 4.71091L49.0406 4.70404Z" fill="url(#paint0_linear)"/>
<path d="M49.0406 4.70404L48.6047 4.76925L48.1825 4.92257L47.8106 5.14568L47.4697 5.45691L47.2157 5.80016L47.1116 5.99238L46.9617 6.41343L46.8942 6.85051V7.08049L46.9605 7.51756L47.0635 7.83221L47.2729 8.22238L47.4765 8.48211L47.7408 8.73382L48.0898 8.96495L48.5006 9.13314L48.9342 9.2201H49.377L49.8141 9.132L50.2214 8.9638L50.5921 8.71666L50.8473 8.47409L51.099 8.12855L51.2912 7.72352L51.3965 7.2933L51.4194 7.08163L51.4102 6.7441C51.4011 6.66858 51.3908 6.60108 51.3759 6.52556C51.3725 6.49582 51.3633 6.45691 51.3519 6.41229L51.2512 6.10222L51.0407 5.70977L50.8313 5.44318L50.5052 5.14684L50.1276 4.91914L49.7088 4.76925L49.3804 4.71091L49.0406 4.70404Z" fill="url(#paint1_linear)"/>
<path d="M68.6813 4.70404L68.2316 4.75896L67.9318 4.84821L67.5279 5.04615L67.1858 5.30931L66.9993 5.50267C66.9433 5.56675 66.8918 5.63312 66.8483 5.70062L66.5989 6.18231L66.4959 6.5004L66.3803 7.59194C66.3552 7.77501 66.3197 7.95349 66.2728 8.12741C66.2236 8.30247 66.1629 8.47982 66.0863 8.6583L65.7888 9.21437L65.7819 9.22124L65.3288 9.81393L65.132 10.0153C65.0554 10.0931 64.9558 10.1755 64.8632 10.2521L64.3494 10.608C63.9387 10.8471 63.5039 11.0084 63.0645 11.0977C62.2064 11.2682 61.3208 11.1641 60.5359 10.8242C59.7464 10.4821 59.0622 9.90317 58.6102 9.12857C58.386 8.74298 58.2189 8.31277 58.1251 7.84137V7.83679C58.0999 7.7075 58.0839 7.5782 58.069 7.45349L57.9741 6.49353L57.8528 6.11138C57.8173 6.01984 57.775 5.93288 57.7281 5.8505C57.6823 5.76813 57.6285 5.69032 57.5691 5.61252L57.2819 5.29901L57.1148 5.15714L56.7372 4.92945L56.3002 4.77384L55.9878 4.71891L55.4729 4.71434L55.045 4.78871L54.6491 4.93631L54.2704 5.16973L54.1011 5.31274L53.9146 5.50611C53.8573 5.57132 53.807 5.63768 53.7635 5.70405L53.5141 6.18575L53.4111 6.50382L53.2967 7.59651C53.2681 7.77958 53.2338 7.95693 53.1869 8.13085C53.14 8.3059 53.0782 8.4821 53.0015 8.66288C52.9226 8.84252 52.8322 9.01758 52.7269 9.18235L52.3356 9.71553L52.0473 10.0187C51.9718 10.0965 51.8699 10.1801 51.7772 10.2556L51.2646 10.6114C50.8539 10.8505 50.4202 11.013 49.9786 11.1C49.1205 11.2727 48.2349 11.1686 47.45 10.8277C46.6616 10.4856 45.9774 9.90775 45.5255 9.132C45.3001 8.74756 45.133 8.31735 45.0392 7.8448V7.84023L44.9053 6.58506L44.8664 6.40429C44.8367 6.30245 44.8058 6.20634 44.7692 6.11366C44.7314 6.02214 44.6902 5.93746 44.6433 5.85509C44.5964 5.77385 44.5438 5.69376 44.4854 5.61595L44.1959 5.3013L43.9213 5.0862L43.6513 4.93287L43.2165 4.77727L42.7714 4.7132L42.3893 4.71091L42.0632 4.75896L41.7611 4.84821L41.3572 5.04615L41.0151 5.30931L40.8298 5.50267C40.7737 5.56675 40.7234 5.63312 40.6776 5.70062L40.4293 6.18231L40.3252 6.5004L40.2108 7.59194C40.1833 7.77501 40.149 7.95349 40.1009 8.12741C40.0552 8.30247 39.9945 8.47982 39.9156 8.6583C39.8378 8.84024 39.7462 9.013 39.6433 9.17891L39.1581 9.81393L38.6925 10.2521L38.1799 10.608C37.7691 10.8471 37.3343 11.0084 36.8938 11.0977C36.0357 11.2682 35.1501 11.1641 34.3652 10.8242C33.578 10.4821 32.8915 9.90317 32.4395 9.12857C32.2164 8.74298 32.0482 8.31277 31.9544 7.84137V7.83679L31.8034 6.49353L31.6844 6.11138C31.6466 6.01984 31.6054 5.93288 31.5574 5.8505C31.5105 5.76813 31.459 5.69032 31.3972 5.61252C31.3377 5.53357 31.2713 5.45462 31.1935 5.37567L30.9441 5.15714L30.5654 4.92945L30.1306 4.77384L29.8182 4.71891L29.4738 4.70976L29.0322 4.77384L28.9155 4.80587L28.5127 4.97064L28.1397 5.21892L27.8915 5.45462L27.6992 5.69947L27.5368 5.97637L27.412 6.28644L27.3194 6.7155L27.3091 7.14799L27.3823 7.5782L27.5288 7.97752L27.7473 8.33794L27.8846 8.50499L28.2164 8.8059L28.6066 9.0439L29.0871 9.21095L29.364 9.259L29.7667 9.28532C30.808 9.34138 31.7382 9.74985 32.443 10.4055C33.1466 11.0588 33.6215 11.957 33.7496 12.9913L33.7771 13.4799H33.7759L33.7485 13.9604C33.7348 14.0542 33.7164 14.2304 33.689 14.3174C33.4888 15.1881 33.0368 15.9742 32.4064 16.5623C31.7885 17.1344 31.0025 17.5222 30.1146 17.6218L29.1878 17.703L28.7393 17.8346L28.396 18.0062L28.0493 18.2659L27.8205 18.5039L27.5711 18.8735L27.4063 19.2705L27.3331 19.5806L27.3033 19.9113L27.3354 20.3232L27.4109 20.6481L27.5768 21.0371L27.7507 21.3071L27.8892 21.4765L28.2141 21.7717L28.5036 21.9582L28.8022 22.0909L29.2553 22.2042L29.6844 22.2248L30.1409 22.1584L30.5482 22.0131L30.943 21.7763L31.189 21.5635C31.2599 21.4879 31.3251 21.4147 31.3903 21.3335C31.4418 21.2648 31.4876 21.1996 31.5242 21.1367V21.1355C31.5654 21.068 31.6009 21.0051 31.6283 20.9479L31.7816 20.5325L31.8446 20.1504L31.9018 19.4799C31.9132 19.354 31.9315 19.2259 31.9544 19.0966V19.0909C32.1535 18.0989 32.705 17.2556 33.4556 16.6664C34.2142 16.0703 35.1798 15.7316 36.1947 15.7556H36.2039C36.546 15.7728 36.8561 15.8185 37.157 15.8998C37.4567 15.9799 37.7485 16.0977 38.0494 16.2568C38.0872 16.2716 38.149 16.3071 38.1822 16.3289C38.649 16.6092 39.0586 16.9616 39.387 17.3769C39.7016 17.7785 39.943 18.2396 40.0872 18.7556C40.1307 18.9124 40.1673 19.0726 40.1948 19.2316C40.2222 19.3975 40.2428 19.5646 40.2554 19.7259C40.2554 19.8552 40.2726 20.0051 40.2806 20.1367L40.3229 20.4181L40.4293 20.7511L40.6788 21.2328C40.7234 21.3003 40.7737 21.3655 40.8298 21.4307L41.0998 21.7007L41.4648 21.9502L41.7566 22.0852L42.1742 22.1973L42.7691 22.2294L43.2245 22.1619L43.5495 22.0543L43.8264 21.9147L44.1044 21.7213L44.2737 21.5669C44.3447 21.4902 44.4099 21.417 44.4751 21.338C44.5266 21.2694 44.5701 21.203 44.609 21.1401V21.139C44.6502 21.0714 44.6856 21.0085 44.7131 20.9513L44.8664 20.536L44.9294 20.1538L44.9854 19.4822C44.9991 19.3563 45.0163 19.2305 45.0403 19.1V19.0966C45.2383 18.1023 45.7898 17.2602 46.5415 16.6687C47.2989 16.0737 48.2658 15.7339 49.2806 15.7602H49.2887C49.6308 15.7762 49.942 15.8231 50.2418 15.9044C50.5404 15.9845 50.8322 16.1012 51.1354 16.2591C51.1708 16.2751 51.2338 16.3105 51.2669 16.3334C51.7349 16.6138 52.1445 16.965 52.4718 17.3803C52.7864 17.7808 53.0278 18.2442 53.172 18.7591C53.2166 18.917 53.2521 19.0772 53.2784 19.2339C53.3081 19.401 53.3287 19.568 53.3413 19.7293C53.3413 19.8586 53.3573 20.0097 53.3653 20.1401L53.4088 20.4216L53.5141 20.7568L53.7635 21.2374C53.807 21.3049 53.8573 21.3689 53.9146 21.4353L54.2727 21.7763L54.6308 21.9971L55.0381 22.1516L55.3734 22.2179L55.807 22.2282L55.8356 22.2248L56.3093 22.1584L56.7178 22.0131L57.0221 21.8403L57.3585 21.5635C57.4295 21.4879 57.4958 21.4147 57.561 21.3335C57.6125 21.2648 57.656 21.1996 57.6938 21.1367V21.1355C57.7361 21.068 57.7704 21.0051 57.799 20.9479L57.9512 20.5325L58.0153 20.1504L58.069 19.4799C58.0839 19.354 58.0999 19.2259 58.1251 19.0966V19.0909C58.3242 18.0989 58.8746 17.2556 59.6251 16.6664C60.3849 16.0703 61.3517 15.7316 62.3643 15.7556H62.3746C62.7167 15.7728 63.0279 15.8185 63.3277 15.8998C63.6263 15.9799 63.9169 16.0977 64.2201 16.2568C64.2556 16.2716 64.3185 16.3071 64.3517 16.3289C64.8197 16.6092 65.2304 16.9616 65.5565 17.3769C65.8723 17.7785 66.1126 18.2396 66.2568 18.7556C66.3014 18.9124 66.3369 19.0726 66.3643 19.2316C66.3929 19.3975 66.4135 19.5646 66.4261 19.7259C66.4261 19.8552 66.4421 20.0051 66.4501 20.1367L66.4936 20.4181L66.5989 20.7511C66.6366 20.8426 66.6767 20.9319 66.719 21.0131C66.7602 21.0932 66.8037 21.1664 66.8483 21.2328C66.8929 21.3003 66.9433 21.3655 66.9982 21.4307L67.2705 21.7007L67.6344 21.9502L67.9273 22.0852L68.3437 22.1973L68.7705 22.2294L69.1046 22.1985L69.3289 22.1504C69.5177 22.0955 69.6561 22.0394 69.8312 21.949L70.1767 21.7145L70.4227 21.4799L70.6882 21.1218L70.8769 20.7191L70.9639 20.4078L71.0108 19.9627L70.9685 19.5222L70.8415 19.0897L70.7019 18.8048L70.4456 18.4513L70.1138 18.1412L69.7431 17.9147L69.4662 17.7968L69.06 17.7019L68.2957 17.6275C68.1527 17.6126 68.0096 17.592 67.862 17.5634H67.8598C67.3929 17.4707 66.9925 17.3071 66.6252 17.0863C66.2682 16.8712 65.9467 16.6012 65.6252 16.2854L65.5108 16.1721V16.1424L65.1229 15.6012L64.8574 15.0668C64.8197 14.9822 64.7659 14.8357 64.7224 14.6973C64.6789 14.5577 64.6412 14.4135 64.6286 14.3288L64.5439 13.6984C64.5336 13.5908 64.5302 13.5336 64.5302 13.4661L64.6046 12.7419C64.616 12.6778 64.6252 12.6 64.6458 12.5393C64.6824 12.4261 64.7064 12.3483 64.7293 12.275C64.7991 12.0451 64.8574 11.8551 64.9993 11.5611L65.1641 11.2213L65.1881 11.2316L65.5108 10.7922V10.7602L65.6275 10.6457C65.9639 10.3185 66.2751 10.0565 66.6252 9.84711C66.9833 9.63543 67.3723 9.48097 67.8517 9.37456L67.8609 9.36998C67.9971 9.34482 68.1321 9.32536 68.2659 9.31049L69.2396 9.20064L69.6035 9.08166C69.6481 9.06563 69.6927 9.0439 69.7431 9.01872L70.0211 8.86083L70.3598 8.57478L70.5726 8.32536L70.7946 7.94778L70.9136 7.6377L71.0005 7.18461L71.0074 6.86653L70.9834 6.64342L70.8769 6.21435L70.679 5.79787L70.4238 5.45462L70.1767 5.21892L69.8129 4.97522L69.417 4.80931L68.9891 4.71891L68.6813 4.70404ZM52.1033 11.235L52.426 10.7956V10.7636L52.5427 10.6503C52.8779 10.3231 53.1914 10.0599 53.5404 9.85168C53.8974 9.63772 54.2864 9.48441 54.7658 9.378L55.18 9.31392L55.6686 9.26815L55.9363 9.28532C56.9764 9.34138 57.9089 9.74985 58.6137 10.4055C59.3162 11.0588 59.791 11.957 59.9203 12.9913L59.9478 13.4799H59.9455L59.9192 13.9604C59.9043 14.0542 59.886 14.2304 59.8585 14.3174C59.6595 15.1881 59.2064 15.9742 58.5748 16.5623C57.9592 17.1344 57.172 17.5222 56.2841 17.6218L55.6331 17.6687L55.2109 17.6309C55.0679 17.6149 54.9237 17.5954 54.7773 17.5668H54.775C54.3082 17.4742 53.9077 17.3106 53.5404 17.0909C53.1834 16.8746 52.8608 16.6046 52.5404 16.2877L52.426 16.1755V16.1458L52.0393 15.6046L51.7738 15.0714C51.7349 14.9856 51.6823 14.8391 51.6388 14.7007C51.5942 14.5622 51.5564 14.4181 51.5461 14.3323L51.4592 13.703C51.4489 13.5954 51.4454 13.5371 51.4454 13.4707L51.5187 12.7453C51.5301 12.6824 51.5404 12.6034 51.5598 12.5416C51.5987 12.4295 51.6216 12.3517 51.6434 12.2796C51.7143 12.0473 51.7738 11.8597 51.9145 11.5645L52.0793 11.2247L52.1033 11.235ZM39.0174 11.2316L39.3412 10.7922V10.7602L39.4579 10.6457C39.792 10.3185 40.1055 10.0565 40.4567 9.84711C40.8126 9.63543 41.2016 9.48097 41.681 9.37456L41.6902 9.36998C41.8275 9.34482 41.9625 9.32536 42.0952 9.31049L42.5391 9.26815L42.8515 9.2876C43.8927 9.34482 44.824 9.75443 45.5277 10.4089C46.2314 11.0634 46.7062 11.9604 46.8355 12.9936L46.863 13.4833H46.8618L46.8344 13.9627C46.8206 14.0577 46.8023 14.235 46.7737 14.3208C46.5758 15.1927 46.1216 15.9776 45.4911 16.5646C44.8733 17.1389 44.0861 17.5257 43.1982 17.6252L42.5986 17.6698L42.1272 17.6275C41.9831 17.6126 41.8389 17.592 41.6925 17.5634H41.689C41.2222 17.4707 40.8229 17.3071 40.4556 17.0863C40.0986 16.8712 39.7771 16.6012 39.4556 16.2854L39.3412 16.1721V16.1424L38.9544 15.6012L38.6878 15.0668C38.6489 14.9822 38.5963 14.8357 38.554 14.6973C38.5105 14.5577 38.4705 14.4135 38.4602 14.3288L38.3732 13.6984C38.3652 13.5908 38.3595 13.5336 38.3595 13.4661L38.435 12.7419C38.4453 12.6778 38.4556 12.6 38.475 12.5393C38.5128 12.4261 38.5368 12.3483 38.5597 12.275C38.6284 12.0451 38.6878 11.8551 38.8309 11.5611L38.9956 11.2213L39.0174 11.2316Z" fill="url(#paint2_linear)"/>
<path d="M68.6813 4.70404L68.2316 4.75896L67.9318 4.84821L67.5279 5.04615L67.1858 5.30931L66.9993 5.50267C66.9433 5.56675 66.8918 5.63312 66.8483 5.70062L66.5989 6.18231L66.4959 6.5004L66.3803 7.59194C66.3552 7.77501 66.3197 7.95349 66.2728 8.12741C66.2236 8.30247 66.1629 8.47982 66.0863 8.6583L65.7888 9.21437L65.7819 9.22124L65.3288 9.81393L65.132 10.0153C65.0554 10.0931 64.9558 10.1755 64.8632 10.2521L64.3494 10.608C63.9387 10.8471 63.5039 11.0084 63.0645 11.0977C62.2064 11.2682 61.3208 11.1641 60.5359 10.8242C59.7464 10.4821 59.0622 9.90317 58.6102 9.12857C58.386 8.74298 58.2189 8.31277 58.1251 7.84137V7.83679C58.0999 7.7075 58.0839 7.5782 58.069 7.45349L57.9741 6.49353L57.8528 6.11138C57.8173 6.01984 57.775 5.93288 57.7281 5.8505C57.6823 5.76813 57.6285 5.69032 57.5691 5.61252L57.2819 5.29901L57.1148 5.15714L56.7372 4.92945L56.3002 4.77384L55.9878 4.71891L55.4729 4.71434L55.045 4.78871L54.6491 4.93631L54.2704 5.16973L54.1011 5.31274L53.9146 5.50611C53.8573 5.57132 53.807 5.63768 53.7635 5.70405L53.5141 6.18575L53.4111 6.50382L53.2967 7.59651C53.2681 7.77958 53.2338 7.95693 53.1869 8.13085C53.14 8.3059 53.0782 8.4821 53.0015 8.66288C52.9226 8.84252 52.8322 9.01758 52.7269 9.18235L52.3356 9.71553L52.0473 10.0187C51.9718 10.0965 51.8699 10.1801 51.7772 10.2556L51.2646 10.6114C50.8539 10.8505 50.4202 11.013 49.9786 11.1C49.1205 11.2727 48.2349 11.1686 47.45 10.8277C46.6616 10.4856 45.9774 9.90775 45.5255 9.132C45.3001 8.74756 45.133 8.31735 45.0392 7.8448V7.84023L44.9053 6.58506L44.8664 6.40429C44.8367 6.30245 44.8058 6.20634 44.7692 6.11366C44.7314 6.02214 44.6902 5.93746 44.6433 5.85509C44.5964 5.77385 44.5438 5.69376 44.4854 5.61595L44.1959 5.3013L43.9213 5.0862L43.6513 4.93287L43.2165 4.77727L42.7714 4.7132L42.3893 4.71091L42.0632 4.75896L41.7611 4.84821L41.3572 5.04615L41.0151 5.30931L40.8298 5.50267C40.7737 5.56675 40.7234 5.63312 40.6776 5.70062L40.4293 6.18231L40.3252 6.5004L40.2108 7.59194C40.1833 7.77501 40.149 7.95349 40.1009 8.12741C40.0552 8.30247 39.9945 8.47982 39.9156 8.6583C39.8378 8.84024 39.7462 9.013 39.6421 9.17891L39.1581 9.81393L38.6925 10.2521L38.1799 10.608C37.7691 10.8471 37.3343 11.0084 36.8938 11.0977C36.0357 11.2682 35.1501 11.1641 34.3652 10.8242C33.578 10.4821 32.8915 9.90317 32.4395 9.12857C32.2164 8.74298 32.0482 8.31277 31.9544 7.84137V7.83679L31.8034 6.49353L31.6844 6.11138C31.6466 6.01984 31.6054 5.93288 31.5574 5.8505C31.5105 5.76813 31.459 5.69032 31.3972 5.61252C31.3377 5.53357 31.2713 5.45462 31.1935 5.37567L30.9441 5.15714L30.5654 4.92945L30.1306 4.77384L29.8182 4.71891L29.4738 4.70976L29.0322 4.77384L28.9155 4.80587L28.5127 4.97064L28.1397 5.21892L27.8915 5.45462L27.6992 5.69947L27.5368 5.97637L27.412 6.28644L27.3194 6.7155L27.3091 7.14799L27.3823 7.5782L27.5288 7.97752L27.7473 8.33794L27.8846 8.50499L28.2164 8.8059L28.6066 9.0439L29.0871 9.21095L29.364 9.259L29.7667 9.28532C30.808 9.34138 31.7382 9.74985 32.443 10.4055C33.1466 11.0588 33.6215 11.957 33.7496 12.9913L33.7771 13.4799H33.7759L33.7485 13.9604C33.7348 14.0542 33.7164 14.2304 33.689 14.3174C33.4888 15.1881 33.0368 15.9742 32.4064 16.5623C31.7885 17.1344 31.0025 17.5222 30.1146 17.6218L29.1878 17.703L28.7393 17.8346L28.396 18.0062L28.0493 18.2659L27.8205 18.5039L27.5711 18.8735L27.4063 19.2705L27.3331 19.5806L27.3033 19.9113L27.3354 20.3232L27.4109 20.6481L27.5768 21.0371L27.7507 21.3071L27.8892 21.4765L28.2141 21.7717L28.5036 21.9582L28.8022 22.0909L29.2553 22.2042L29.6844 22.2248L30.1409 22.1584L30.5482 22.0131L30.943 21.7763L31.189 21.5635C31.2599 21.4879 31.3251 21.4147 31.3903 21.3335C31.4418 21.2648 31.4876 21.1996 31.5242 21.1367V21.1355C31.5654 21.068 31.6009 21.0051 31.6283 20.9479L31.7816 20.5325L31.8446 20.1504L31.9018 19.4799C31.9132 19.354 31.9315 19.2259 31.9544 19.0966V19.0909C32.1535 18.0989 32.705 17.2556 33.4556 16.6664C34.2142 16.0703 35.1798 15.7316 36.1947 15.7556H36.2039C36.546 15.7728 36.8561 15.8185 37.157 15.8998C37.4567 15.9799 37.7485 16.0977 38.0494 16.2568C38.0872 16.2716 38.149 16.3071 38.1822 16.3289C38.649 16.6092 39.0586 16.9616 39.387 17.3769C39.7016 17.7785 39.943 18.2396 40.0872 18.7556C40.1307 18.9124 40.1673 19.0726 40.1948 19.2316C40.2222 19.3975 40.2428 19.5646 40.2554 19.7259C40.2554 19.8552 40.2726 20.0051 40.2806 20.1367L40.3229 20.4181L40.4293 20.7511L40.6788 21.2328C40.7234 21.3003 40.7737 21.3655 40.8298 21.4307L41.0998 21.7007L41.4648 21.9502L41.7566 22.0852L42.1742 22.1973L42.7691 22.2294L43.2245 22.1619L43.5495 22.0543L43.8264 21.9147L44.1044 21.7213L44.2737 21.5669C44.3447 21.4902 44.4099 21.417 44.4751 21.338C44.5266 21.2694 44.5701 21.203 44.609 21.1401V21.139C44.6502 21.0714 44.6856 21.0085 44.7131 20.9513L44.8664 20.536L44.9294 20.1538L44.9854 19.4822C44.9991 19.3563 45.0163 19.2305 45.0403 19.1V19.0966C45.2383 18.1023 45.7898 17.2602 46.5415 16.6687C47.2989 16.0737 48.2658 15.7339 49.2806 15.7602H49.2887C49.6308 15.7762 49.942 15.8231 50.2418 15.9044C50.5404 15.9845 50.8322 16.1012 51.1354 16.2591C51.1708 16.2751 51.2338 16.3105 51.2669 16.3334C51.7349 16.6138 52.1445 16.965 52.4718 17.3803C52.7864 17.7808 53.0278 18.2442 53.172 18.7591C53.2166 18.917 53.2521 19.0772 53.2784 19.2339C53.3081 19.401 53.3287 19.568 53.3413 19.7293C53.3413 19.8586 53.3573 20.0097 53.3653 20.1401L53.4088 20.4216L53.5141 20.7568L53.7635 21.2374C53.807 21.3049 53.8573 21.3689 53.9146 21.4353L54.2727 21.7763L54.6308 21.9971L55.0381 22.1516L55.3734 22.2179L55.807 22.2282L55.8356 22.2248L56.3093 22.1584L56.7178 22.0131L57.0221 21.8403L57.3585 21.5635C57.4295 21.4879 57.4958 21.4147 57.561 21.3335C57.6125 21.2648 57.656 21.1996 57.6938 21.1367V21.1355C57.7361 21.068 57.7704 21.0051 57.799 20.9479L57.9512 20.5325L58.0153 20.1504L58.069 19.4799C58.0839 19.354 58.0999 19.2259 58.1251 19.0966V19.0909C58.3242 18.0989 58.8746 17.2556 59.6251 16.6664C60.3849 16.0703 61.3517 15.7316 62.3643 15.7556H62.3746C62.7167 15.7728 63.0279 15.8185 63.3277 15.8998C63.6263 15.9799 63.9169 16.0977 64.2201 16.2568C64.2556 16.2716 64.3185 16.3071 64.3517 16.3289C64.8197 16.6092 65.2304 16.9616 65.5565 17.3769C65.8723 17.7785 66.1126 18.2396 66.2568 18.7556C66.3014 18.9124 66.3369 19.0726 66.3643 19.2316C66.3929 19.3975 66.4135 19.5646 66.4261 19.7259C66.4261 19.8552 66.4421 20.0051 66.4501 20.1367L66.4936 20.4181L66.5989 20.7511C66.6366 20.8426 66.6767 20.9319 66.719 21.0131C66.7602 21.0932 66.8037 21.1664 66.8483 21.2328C66.8929 21.3003 66.9433 21.3655 66.9982 21.4307L67.2705 21.7007L67.6344 21.9502L67.9273 22.0852L68.3437 22.1973L68.7705 22.2294L69.1046 22.1985L69.3289 22.1504C69.5177 22.0955 69.6561 22.0394 69.8312 21.949L70.1767 21.7145L70.4227 21.4799L70.6882 21.1218L70.8769 20.7191L70.9639 20.4078L71.0108 19.9627L70.9685 19.5222L70.8415 19.0897L70.7019 18.8048L70.4456 18.4513L70.1138 18.1412L69.7431 17.9147L69.4662 17.7968L69.06 17.7019L68.2957 17.6275C68.1527 17.6126 68.0096 17.592 67.862 17.5634H67.8598C67.3929 17.4707 66.9925 17.3071 66.6252 17.0863C66.2682 16.8712 65.9467 16.6012 65.6252 16.2854L65.5108 16.1721V16.1424L65.1229 15.6012L64.8574 15.0668C64.8197 14.9822 64.7659 14.8357 64.7224 14.6973C64.6789 14.5577 64.6412 14.4135 64.6286 14.3288L64.5439 13.6984C64.5336 13.5908 64.5302 13.5336 64.5302 13.4661L64.6046 12.7419C64.616 12.6778 64.6252 12.6 64.6458 12.5393C64.6824 12.4261 64.7064 12.3483 64.7293 12.275C64.7991 12.0451 64.8574 11.8551 64.9993 11.5611L65.1641 11.2213L65.1881 11.2316L65.5108 10.7922V10.7602L65.6275 10.6457C65.9639 10.3185 66.2751 10.0565 66.6252 9.84711C66.9833 9.63543 67.3723 9.48097 67.8517 9.37456L67.8609 9.36998C67.9971 9.34482 68.1321 9.32536 68.2659 9.31049L69.2396 9.20064L69.6035 9.08166C69.6481 9.06563 69.6927 9.0439 69.7431 9.01872L70.0211 8.86083L70.3598 8.57478L70.5726 8.32536L70.7946 7.94778L70.9136 7.6377L71.0005 7.18461L71.0074 6.86653L70.9834 6.64342L70.8769 6.21435L70.679 5.79787L70.4238 5.45462L70.1767 5.21892L69.8129 4.97522L69.417 4.80931L68.9891 4.71891L68.6813 4.70404ZM52.1033 11.235L52.426 10.7956V10.7636L52.5427 10.6503C52.8779 10.3231 53.1914 10.0599 53.5404 9.85168C53.8974 9.63772 54.2864 9.48441 54.7658 9.378L55.18 9.31392L55.6686 9.26815L55.9363 9.28532C56.9764 9.34138 57.9089 9.74985 58.6137 10.4055C59.3162 11.0588 59.791 11.957 59.9203 12.9913L59.9478 13.4799H59.9455L59.9192 13.9604C59.9043 14.0542 59.886 14.2304 59.8585 14.3174C59.6595 15.1881 59.2064 15.9742 58.5748 16.5623C57.9592 17.1344 57.172 17.5222 56.2841 17.6218L55.6331 17.6687L55.2109 17.6309C55.0679 17.6149 54.9237 17.5954 54.7773 17.5668H54.775C54.3082 17.4742 53.9077 17.3106 53.5404 17.0909C53.1834 16.8746 52.8608 16.6046 52.5404 16.2877L52.426 16.1755V16.1458L52.0393 15.6046L51.7738 15.0714C51.7349 14.9856 51.6823 14.8391 51.6388 14.7007C51.5942 14.5622 51.5564 14.4181 51.5461 14.3323L51.4592 13.703C51.4489 13.5954 51.4454 13.5371 51.4454 13.4707L51.5187 12.7453C51.5301 12.6824 51.5404 12.6034 51.5598 12.5416C51.5987 12.4295 51.6216 12.3517 51.6434 12.2796C51.7143 12.0473 51.7738 11.8597 51.9145 11.5645L52.0793 11.2247L52.1033 11.235ZM39.0174 11.2316L39.3412 10.7922V10.7602L39.4579 10.6457C39.792 10.3185 40.1055 10.0565 40.4567 9.84711C40.8126 9.63543 41.2016 9.48097 41.681 9.37456L41.6902 9.36998C41.8275 9.34482 41.9625 9.32536 42.0952 9.31049L42.5391 9.26815L42.8515 9.2876C43.8927 9.34482 44.824 9.75443 45.5277 10.4089C46.2314 11.0634 46.7062 11.9604 46.8355 12.9936L46.863 13.4833H46.8618L46.8344 13.9627C46.8206 14.0577 46.8023 14.235 46.7737 14.3208C46.5758 15.1927 46.1216 15.9776 45.4911 16.5646C44.8733 17.1389 44.0861 17.5257 43.1982 17.6252L42.5986 17.6698L42.1272 17.6275C41.9831 17.6126 41.8389 17.592 41.6925 17.5634H41.689C41.2222 17.4707 40.8229 17.3071 40.4556 17.0863C40.0986 16.8712 39.7771 16.6012 39.4556 16.2854L39.3412 16.1721V16.1424L38.9544 15.6012L38.6878 15.0668C38.6489 14.9822 38.5963 14.8357 38.554 14.6973C38.5105 14.5577 38.4705 14.4135 38.4602 14.3288L38.3732 13.6984C38.3652 13.5908 38.3595 13.5336 38.3595 13.4661L38.435 12.7419C38.4453 12.6778 38.4556 12.6 38.475 12.5393C38.5128 12.4261 38.5368 12.3483 38.5597 12.275C38.6284 12.0451 38.6878 11.8551 38.8309 11.5611L38.9956 11.2213L39.0174 11.2316Z" fill="url(#paint3_linear)"/>
<path d="M62.1247 17.6777L61.6899 17.7429L61.2689 17.8951L60.8947 18.1182L60.7265 18.2566L60.4176 18.5964L60.1968 18.9649L60.0457 19.3859L59.9862 19.7177L59.9794 20.0541L60.0446 20.4912L60.1476 20.8059L60.3569 21.196L60.6842 21.5827L60.9828 21.8219L61.3741 22.0313L61.7997 22.1594L62.1247 22.2006L62.4622 22.1937L62.8982 22.1045L63.3066 21.9374L63.6773 21.6914L63.9302 21.4466L64.1831 21.1022L64.3764 20.696L64.4817 20.2669L64.5034 20.0541L64.4943 19.7177L64.4096 19.2852L64.238 18.8733L64.0606 18.593L63.9897 18.5038C63.9725 18.4809 63.9462 18.4523 63.9153 18.4168L63.5892 18.1205L63.2105 17.8928C63.1373 17.8596 63.0732 17.8344 62.9988 17.807C62.9817 17.799 62.9496 17.7887 62.897 17.7726L62.5698 17.6983L62.1247 17.6777Z" fill="url(#paint4_linear)"/>
<path d="M62.1247 17.6777L61.6899 17.7429L61.2689 17.8951L60.8947 18.1182L60.7265 18.2566L60.4176 18.5964L60.1968 18.9649L60.0457 19.3859L59.9862 19.7177L59.9794 20.0541L60.0446 20.4912L60.1476 20.8059L60.3569 21.196L60.6842 21.5827L60.9828 21.8219L61.3741 22.0313L61.7997 22.1594L62.1247 22.2006L62.4622 22.1937L62.8982 22.1045L63.3066 21.9374L63.6773 21.6914L63.9302 21.4466L64.1831 21.1022L64.3764 20.696L64.4817 20.2669L64.5034 20.0541L64.4943 19.7177L64.4096 19.2852L64.238 18.8733L64.0606 18.593L63.9897 18.5038C63.9725 18.4809 63.9462 18.4523 63.9153 18.4168L63.5892 18.1205L63.2105 17.8928C63.1373 17.8596 63.0732 17.8344 62.9988 17.807C62.9817 17.799 62.9496 17.7887 62.897 17.7726L62.5698 17.6983L62.1247 17.6777Z" fill="url(#paint5_linear)"/>
<path d="M35.9556 17.6777L35.5196 17.7429L35.0986 17.8951L34.7256 18.1182L34.3846 18.4294L34.1295 18.7738L34.0265 18.9649L33.8766 19.3859L33.8171 19.7177L33.8091 20.0541L33.8754 20.4912L33.9784 20.8059L34.1878 21.196L34.3915 21.4546L34.6558 21.7075L35.0047 21.9386L35.4144 22.1068L35.8491 22.1937H36.2919L36.729 22.1045L37.1375 21.9374L37.5059 21.6914L37.7611 21.4466L38.0139 21.1022L38.1638 20.8059L38.2061 20.696L38.3114 20.2669L38.3331 20.0541L38.3251 19.7177L38.2405 19.2852L38.0688 18.8733L37.8915 18.593L37.5791 18.2509L37.4201 18.1205L37.0414 17.8928C36.9681 17.8596 36.9052 17.8344 36.8286 17.807C36.8125 17.799 36.7816 17.7887 36.7279 17.7726L36.4006 17.6983L35.9556 17.6777Z" fill="url(#paint6_linear)"/>
<path d="M35.9556 17.6777L35.5196 17.7429L35.0986 17.8951L34.7256 18.1182L34.3846 18.4294L34.1295 18.7738L34.0265 18.9649L33.8766 19.3859L33.8171 19.7177L33.8091 20.0541L33.9018 20.5942L34.0722 21.0038L34.3205 21.3745L34.5825 21.6457L34.9086 21.8837L35.3125 22.0725L35.7439 22.18L36.1844 22.2006L36.618 22.1354L36.935 22.0324L37.2313 21.8848L37.5952 21.6148L37.8903 21.2875L38.1203 20.9065L38.2061 20.696L38.3114 20.2669L38.3331 20.0541L38.3251 19.7177L38.2405 19.2852L38.0688 18.8733L37.8915 18.593L37.5791 18.2509L37.4201 18.1205L37.0414 17.8928C36.9681 17.8596 36.9052 17.8344 36.8286 17.807C36.8125 17.799 36.7816 17.7887 36.7279 17.7726L36.4006 17.6983L35.9556 17.6777Z" fill="url(#paint7_linear)"/>
<path d="M66.1512 0.126963C65.1867 0.212779 64.2542 0.34321 63.3033 0.48737V0.852369C63.777 0.930166 64.2507 0.98738 64.7233 1.05489C65.1924 1.11781 65.6787 1.15557 66.1329 1.23452C67.0356 1.37412 67.9178 1.54688 68.7519 1.86267C70.427 2.4462 71.9453 3.35124 73.213 4.50457C75.744 6.8261 77.1891 10.1248 77.1891 13.468C77.1891 16.809 75.744 20.1077 73.213 22.4304C71.9453 23.5825 70.427 24.4876 68.7519 25.0723C67.9178 25.3869 67.0356 25.5597 66.1329 25.7004C65.6787 25.7782 65.1924 25.816 64.7233 25.8789C64.2507 25.9476 63.777 26.0048 63.3033 26.0826V26.4476C64.2542 26.5917 65.1867 26.7222 66.1512 26.8068C67.1398 26.8892 68.1489 26.8629 69.1489 26.705C71.1501 26.3926 73.0986 25.5734 74.7771 24.3491C76.4533 23.1192 77.8275 21.4624 78.7795 19.5825C79.7337 17.7003 80.2337 15.5825 80.2429 13.468C80.2337 11.3525 79.7337 9.23345 78.7795 7.35128C77.8275 5.47254 76.4533 3.81463 74.7771 2.58465C73.0986 1.36039 71.1501 0.5423 69.1489 0.228793C68.5128 0.129248 67.872 0.0823364 67.2347 0.0823364C66.872 0.0823364 66.5105 0.0972082 66.1512 0.126963Z" fill="url(#paint8_linear)"/>
<path d="M29.8383 0.0560606C27.7193 0.232261 25.6301 1.00687 23.8303 2.22885C22.0236 3.44396 20.495 5.11674 19.4756 7.08129C18.4412 9.03784 17.8909 11.2564 17.8783 13.4761C17.8909 15.6935 18.4412 17.9143 19.4756 19.8697C20.495 21.8331 22.0236 23.5071 23.8303 24.721C25.6301 25.9442 27.7193 26.7188 29.8383 26.895C30.3692 26.9304 30.8921 26.9762 31.4207 26.935L32.2034 26.9041L32.9482 26.8252C33.9402 26.7176 34.9334 26.6032 35.9265 26.4533V26.0918C34.9334 25.943 33.9402 25.8286 32.9482 25.7199L32.2034 25.641L31.5008 25.5357C31.0329 25.4865 30.5775 25.356 30.1278 25.2405C28.3258 24.7725 26.6816 23.8949 25.3097 22.7382C22.5133 20.4556 20.9447 16.9715 20.9321 13.4761C20.9447 9.97949 22.5133 6.49548 25.3097 4.2117C26.6816 3.05494 28.3258 2.17736 30.1278 1.70939C30.5775 1.59383 31.0329 1.4634 31.5008 1.41534L32.2034 1.30894L32.9482 1.23113C33.9402 1.12129 34.9334 1.00802 35.9265 0.858132V0.496572C34.9334 0.346677 33.9402 0.233403 32.9482 0.124708L32.2034 0.0469112L30.9757 0C30.5981 0 30.2205 0.0297437 29.8383 0.0560606Z" fill="url(#paint9_linear)"/>
<path d="M4.17966 35.9735C4.17966 35.1829 3.61558 34.787 2.48972 34.787H2.11558V37.2252H2.46341C3.0229 37.2252 3.44853 37.1131 3.74144 36.89C4.03321 36.6658 4.17966 36.3602 4.17966 35.9735ZM6.21744 35.9609C6.21744 36.4163 6.11903 36.8248 5.9211 37.1863C5.72315 37.5479 5.4497 37.85 5.10187 38.096C4.7529 38.3408 4.34328 38.5273 3.86959 38.6566C3.39705 38.7859 2.88561 38.85 2.33526 38.85H2.11558V41.7528H0V33.1611H2.47714C3.01832 33.1611 3.51947 33.2172 3.97944 33.3293C4.43939 33.4415 4.83527 33.6108 5.16594 33.8385C5.49661 34.0662 5.75519 34.3568 5.94055 34.7092C6.12476 35.0628 6.21744 35.4792 6.21744 35.9609Z" fill="#134E9E"/>
<path d="M8.5166 41.7478V32.6401H10.5807V36.1756C10.7695 35.8736 11.0155 35.6528 11.3164 35.5109C11.6162 35.369 11.9354 35.2981 12.2706 35.2981C12.6917 35.2981 13.0487 35.3862 13.3416 35.5624C13.6334 35.7386 13.8725 35.9731 14.0567 36.2649C14.242 36.5578 14.3748 36.8953 14.4572 37.2786C14.5384 37.6608 14.5796 38.0624 14.5796 38.4834V41.7478H12.5155V38.4457C12.5155 37.9205 12.4331 37.5361 12.2706 37.2901C12.107 37.0464 11.8576 36.9228 11.5223 36.9228C11.3072 36.9228 11.1196 36.9708 10.9606 37.0647C10.8027 37.1596 10.6757 37.2763 10.5807 37.4136V41.7478H8.5166Z" fill="#134E9E"/>
<path d="M19.5538 40.5248C19.7517 40.5248 19.9382 40.4997 20.1155 40.447C20.2917 40.3956 20.4531 40.3269 20.5995 40.2411V39.2994C20.3924 39.3166 20.2071 39.336 20.0446 39.3578C19.881 39.3795 19.7219 39.399 19.5675 39.4161C19.1453 39.4665 18.9348 39.6656 18.9348 40.0088C18.9348 40.1633 18.9885 40.288 19.0961 40.383C19.2036 40.4768 19.3558 40.5248 19.5538 40.5248ZM20.6762 41.1312C20.4783 41.3292 20.2094 41.5031 19.8695 41.6541C19.5297 41.804 19.1579 41.8795 18.754 41.8795C18.4702 41.8795 18.2174 41.8326 17.9931 41.7377C17.7688 41.6427 17.5823 41.5146 17.4325 41.3498C17.2814 41.1873 17.1659 40.9951 17.0835 40.7766C17.0022 40.5569 16.9611 40.3223 16.9611 40.0729C16.9611 39.4882 17.1441 39.0477 17.5091 38.7514C17.8753 38.455 18.3924 38.28 19.064 38.2285C19.3135 38.2113 19.5778 38.1987 19.857 38.1896C20.1361 38.1816 20.3844 38.1736 20.5995 38.1644V37.9573C20.5995 37.2697 20.2162 36.9253 19.4508 36.9253C19.1499 36.9253 18.8592 36.9607 18.5801 37.0294C18.3009 37.098 18.0446 37.1919 17.8123 37.3131L17.4382 35.8806C17.7391 35.709 18.0938 35.5694 18.5034 35.4619C18.9107 35.3543 19.3558 35.3005 19.8387 35.3005C20.7231 35.3005 21.4153 35.5305 21.9142 35.9905C22.413 36.4504 22.6625 37.1404 22.6625 38.0603V41.7503H20.6762V41.1312Z" fill="#134E9E"/>
<path d="M29.716 37.2147H29.4712C28.6542 37.2147 28.0776 37.4218 27.7423 37.8337V41.7559H25.6782V35.4344H27.6782V36.4927C27.7984 36.1483 27.9826 35.8772 28.2332 35.6804C28.4815 35.4824 28.8087 35.3829 29.2137 35.3829C29.3339 35.3829 29.4346 35.3897 29.5158 35.4023C29.5982 35.4149 29.6817 35.4344 29.7675 35.4607L29.716 37.2147Z" fill="#134E9E"/>
<path d="M39.4153 36.9254C39.1922 36.9254 38.9943 36.9769 38.8215 37.081C38.6499 37.184 38.5046 37.3041 38.3833 37.4414C38.4176 37.5879 38.4416 37.7561 38.4542 37.9448C38.4668 38.1336 38.4737 38.3144 38.4737 38.486V41.7504H36.4096V38.4483C36.4096 37.9231 36.3432 37.5387 36.2105 37.2927C36.0766 37.0478 35.8421 36.9254 35.5068 36.9254C35.2917 36.9254 35.1041 36.9734 34.9462 37.0673C34.7872 37.1622 34.6601 37.2778 34.5652 37.4162V41.7504H32.5011V35.4288H34.4874V36.2549C34.6853 35.9105 34.9462 35.6656 35.2677 35.5192C35.5904 35.3739 35.9199 35.3007 36.2551 35.3007C36.6682 35.3007 37.0091 35.3842 37.2803 35.5512C37.5515 35.7194 37.8078 35.9929 38.048 36.3705C38.4954 35.6576 39.1968 35.3007 40.151 35.3007C40.5641 35.3007 40.9119 35.3888 41.1957 35.565C41.4794 35.7412 41.7094 35.9757 41.8856 36.2675C42.0618 36.5604 42.1888 36.8979 42.2666 37.2801C42.3444 37.6634 42.3822 38.065 42.3822 38.486V41.7504H40.3192V38.4483C40.3192 37.9231 40.2517 37.5387 40.119 37.2927C39.9851 37.0478 39.7506 36.9254 39.4153 36.9254Z" fill="#134E9E"/>
<path d="M47.5463 40.5248C47.7443 40.5248 47.9308 40.4997 48.1081 40.447C48.2843 40.3956 48.4456 40.3269 48.5909 40.2411V39.2994C48.385 39.3166 48.1996 39.336 48.0372 39.3578C47.8735 39.3795 47.7145 39.399 47.56 39.4161C47.1378 39.4665 46.9273 39.6656 46.9273 40.0088C46.9273 40.1633 46.9811 40.288 47.0886 40.383C47.1962 40.4768 47.3484 40.5248 47.5463 40.5248ZM48.6687 41.1312C48.4708 41.3292 48.2019 41.5031 47.8621 41.6541C47.5223 41.804 47.1516 41.8795 46.7465 41.8795C46.4628 41.8795 46.2099 41.8326 45.9857 41.7377C45.7614 41.6427 45.5749 41.5146 45.425 41.3498C45.274 41.1873 45.1573 40.9951 45.076 40.7766C44.9948 40.5569 44.9536 40.3223 44.9536 40.0729C44.9536 39.4882 45.1367 39.0477 45.5017 38.7514C45.8667 38.455 46.385 38.28 47.0566 38.2285C47.306 38.2113 47.5703 38.1987 47.8495 38.1896C48.1287 38.1816 48.3758 38.1736 48.5909 38.1644V37.9573C48.5909 37.2697 48.2088 36.9253 47.4433 36.9253C47.1413 36.9253 46.8518 36.9607 46.5726 37.0294C46.2934 37.098 46.0371 37.1919 45.8049 37.3131L45.4307 35.8806C45.7317 35.709 46.0863 35.5694 46.4948 35.4619C46.9033 35.3543 47.3484 35.3005 47.8312 35.3005C48.7157 35.3005 49.4079 35.5305 49.9067 35.9905C50.4056 36.4504 50.655 37.1404 50.655 38.0603V41.7503H48.6687V41.1312Z" fill="#134E9E"/>
<path d="M56.2252 33.1611V40.0754H59.3854V41.7527H54.1096V33.1611H56.2252Z" fill="#134E9E"/>
<path d="M64.7504 36.6163C64.4232 36.6163 64.1715 36.7216 63.9953 36.9321C63.8191 37.1427 63.731 37.4333 63.731 37.8028H65.5628C65.5799 37.7342 65.5879 37.661 65.5879 37.5843C65.5879 37.3086 65.5159 37.0786 65.3694 36.8932C65.223 36.709 65.0159 36.6163 64.7504 36.6163ZM64.8145 35.3005C65.6406 35.3005 66.2939 35.5443 66.7756 36.0294C67.2573 36.5156 67.4976 37.1884 67.4976 38.0488C67.4976 38.3749 67.4587 38.7239 67.382 39.0935H63.7184C63.7355 39.4802 63.8671 39.7914 64.112 40.0283C64.3568 40.2651 64.7321 40.383 65.2401 40.383C65.5502 40.383 65.874 40.3555 66.2138 40.2994C66.5536 40.2434 66.8488 40.1598 67.0982 40.0477L67.3557 41.3761C67.0296 41.5397 66.6612 41.6644 66.2527 41.7502C65.8442 41.8361 65.4209 41.8795 64.9827 41.8795C64.4323 41.8795 63.9461 41.8006 63.525 41.6415C63.1039 41.4814 62.7504 41.2605 62.4666 40.9768C62.1829 40.693 61.9678 40.3532 61.8213 39.9573C61.6749 39.5614 61.6028 39.1232 61.6028 38.6415C61.6028 38.1255 61.6771 37.661 61.8282 37.2479C61.9792 36.836 62.1943 36.4859 62.4735 36.1976C62.7527 35.9092 63.0902 35.6873 63.4861 35.5328C63.882 35.3783 64.3248 35.3005 64.8145 35.3005Z" fill="#134E9E"/>
<path d="M73.2831 40.3027C73.7214 40.3027 74.0738 40.1562 74.3404 39.8622V36.9491C74.1516 36.8804 73.9056 36.8461 73.6058 36.8461C73.0898 36.8461 72.7042 37.0052 72.4513 37.3244C72.1973 37.6448 72.0703 38.0807 72.0703 38.6322C72.0703 39.1253 72.1664 39.5258 72.3609 39.837C72.5543 40.1482 72.8609 40.3027 73.2831 40.3027ZM76.4044 41.7478H74.4307V40.956C74.2328 41.2375 73.9765 41.4606 73.663 41.6265C73.3495 41.7936 72.9731 41.8771 72.5348 41.8771C72.1824 41.8771 71.8506 41.8016 71.5417 41.6505C71.2316 41.5006 70.9627 41.2855 70.7351 41.0063C70.5074 40.7272 70.3289 40.3885 70.1996 39.9938C70.0703 39.5979 70.0062 39.1551 70.0062 38.6642C70.0062 38.115 70.0943 37.6287 70.2705 37.2065C70.4467 36.7855 70.6836 36.4331 70.9799 36.1493C71.2774 35.8656 71.6229 35.6528 72.0188 35.5109C72.4136 35.369 72.8358 35.2981 73.2831 35.2981C73.5062 35.2981 73.7042 35.3129 73.877 35.3427C74.0474 35.3736 74.2031 35.409 74.3404 35.4525V32.6401H76.4044V41.7478Z" fill="#134E9E"/>
<path d="M81.8908 38.3442C82.1917 38.3442 82.4194 38.2652 82.5739 38.1062C82.7284 37.9471 82.8062 37.7297 82.8062 37.454C82.8062 37.1794 82.7284 36.962 82.5739 36.803C82.4194 36.6439 82.1917 36.5638 81.8908 36.5638C81.5888 36.5638 81.3622 36.6439 81.2066 36.803C81.0521 36.962 80.9743 37.1794 80.9743 37.454C80.9743 37.7297 81.0521 37.9471 81.2066 38.1062C81.3622 38.2652 81.5888 38.3442 81.8908 38.3442ZM81.2844 41.7755C81.1803 41.8534 81.0739 41.9472 80.9618 42.0593C80.8496 42.1714 80.7947 42.3167 80.7947 42.4975C80.7947 42.7389 80.8954 42.9151 81.0968 43.0273C81.2993 43.1383 81.5808 43.1955 81.9423 43.1955C82.1311 43.1955 82.3187 43.1749 82.503 43.136C82.6883 43.0982 82.8531 43.0421 82.9995 42.9689C83.146 42.8957 83.2627 42.8099 83.3485 42.7103C83.4343 42.6119 83.4778 42.4975 83.4778 42.3694C83.4778 42.2138 83.4229 42.1028 83.3165 42.0341C83.2078 41.9643 83.0384 41.922 82.8062 41.9048L81.2844 41.7755ZM85.4126 35.4288V36.7446H84.4835L84.4698 36.732C84.5648 36.9895 84.6117 37.2389 84.6117 37.4803C84.6117 37.7721 84.5545 38.0478 84.4389 38.3053C84.3222 38.5638 84.1506 38.7892 83.9217 38.9826C83.694 39.1771 83.4103 39.3293 83.0705 39.4403C82.7307 39.5524 82.3371 39.6085 81.8908 39.6085H81.813C81.7787 39.6691 81.7501 39.7263 81.7295 39.7824C81.7078 39.8385 81.6975 39.9014 81.6975 39.97C81.6975 40.0902 81.7421 40.1783 81.8325 40.2343C81.9229 40.2904 82.0361 40.3224 82.1746 40.3316L83.2833 40.3957C83.9194 40.4391 84.4297 40.6039 84.8119 40.8922C85.1952 41.1806 85.3863 41.6085 85.3863 42.176C85.3863 42.5707 85.281 42.9174 85.0705 43.2138C84.86 43.5113 84.5808 43.7561 84.2318 43.9495C83.8828 44.1428 83.4904 44.2893 83.051 44.3877C82.6128 44.4872 82.1654 44.5364 81.7101 44.5364C81.3485 44.5364 80.9984 44.5101 80.6586 44.4586C80.3187 44.4071 80.0155 44.319 79.7489 44.1943C79.4823 44.0696 79.2672 43.9037 79.1036 43.6978C78.9411 43.4918 78.8588 43.2378 78.8588 42.9369C78.8588 42.7389 78.9022 42.565 78.9881 42.414C79.0739 42.2641 79.1894 42.1325 79.337 42.0204C79.4823 41.9083 79.6505 41.8144 79.8393 41.7366C80.0293 41.66 80.2226 41.5993 80.4194 41.557C80.0418 41.3671 79.8519 41.0787 79.8519 40.692C79.8519 40.5295 79.8851 40.3819 79.9492 40.2538C80.0132 40.1245 80.0933 40.0112 80.1872 39.9117C80.2821 39.8133 80.3885 39.7263 80.5041 39.6542C80.6196 39.581 80.7295 39.5227 80.8325 39.4792C80.2821 39.3339 79.8668 39.0822 79.5876 38.7252C79.3084 38.3682 79.1688 37.9529 79.1688 37.4803C79.1688 37.1702 79.226 36.8853 79.3427 36.6222C79.4594 36.3602 79.6311 36.1302 79.8588 35.9322C80.0865 35.7343 80.3702 35.5798 80.71 35.4677C81.0499 35.3556 81.4435 35.3007 81.8908 35.3007C82.0796 35.3007 82.2581 35.311 82.4252 35.3316C82.5933 35.3533 82.7501 35.3865 82.8966 35.4288H85.4126Z" fill="#134E9E"/>
<path d="M90.6481 36.6163C90.3209 36.6163 90.0692 36.7216 89.893 36.9321C89.7167 37.1427 89.6286 37.4333 89.6286 37.8028H91.4605C91.4776 37.7342 91.4856 37.661 91.4856 37.5843C91.4856 37.3086 91.4136 37.0786 91.2671 36.8932C91.1207 36.709 90.9136 36.6163 90.6481 36.6163ZM90.7122 35.3005C91.5383 35.3005 92.1916 35.5443 92.6733 36.0294C93.155 36.5156 93.3953 37.1884 93.3953 38.0488C93.3953 38.3749 93.3575 38.7239 93.2797 39.0935H89.6161C89.6332 39.4802 89.7648 39.7914 90.0097 40.0283C90.2545 40.2651 90.6298 40.383 91.139 40.383C91.4479 40.383 91.7717 40.3555 92.1115 40.2994C92.4513 40.2434 92.7465 40.1598 92.996 40.0477L93.2534 41.3761C92.9273 41.5397 92.5589 41.6644 92.1504 41.7502C91.7431 41.8361 91.3186 41.8795 90.8804 41.8795C90.33 41.8795 89.8438 41.8006 89.4227 41.6415C89.0016 41.4814 88.6481 41.2605 88.3643 40.9768C88.0806 40.693 87.8655 40.3532 87.7202 39.9573C87.5726 39.5614 87.5005 39.1232 87.5005 38.6415C87.5005 38.1255 87.5749 37.661 87.7259 37.2479C87.8769 36.836 88.092 36.4859 88.3712 36.1976C88.6504 35.9092 88.9879 35.6873 89.3838 35.5328C89.7797 35.3783 90.2225 35.3005 90.7122 35.3005Z" fill="#134E9E"/>
<path d="M99.9486 37.2147H99.7037C98.8856 37.2147 98.3101 37.4218 97.9749 37.8337V41.7559H95.9108V35.4344H97.9108V36.4927C98.0298 36.1483 98.2151 35.8772 98.4646 35.6804C98.714 35.4824 99.0412 35.3829 99.4451 35.3829C99.5664 35.3829 99.666 35.3897 99.7483 35.4023C99.8296 35.4149 99.9142 35.4344 100 35.4607L99.9486 37.2147Z" fill="#134E9E"/>
<defs>
<linearGradient id="paint0_linear" x1="81.4511" y1="6.96567" x2="15.5045" y2="6.96567" gradientUnits="userSpaceOnUse">
<stop stop-color="#008495"/>
<stop offset="0.11" stop-color="#008495"/>
<stop offset="0.93" stop-color="#134E9B"/>
<stop offset="1" stop-color="#134E9B"/>
</linearGradient>
<linearGradient id="paint1_linear" x1="81.4511" y1="6.96567" x2="15.5045" y2="6.96567" gradientUnits="userSpaceOnUse">
<stop stop-color="#008495"/>
<stop offset="0.11" stop-color="#008495"/>
<stop offset="0.93" stop-color="#134E9B"/>
<stop offset="1" stop-color="#134E9B"/>
</linearGradient>
<linearGradient id="paint2_linear" x1="81.4508" y1="13.4686" x2="15.5042" y2="13.4686" gradientUnits="userSpaceOnUse">
<stop stop-color="#008495"/>
<stop offset="0.11" stop-color="#008495"/>
<stop offset="0.93" stop-color="#134E9B"/>
<stop offset="1" stop-color="#134E9B"/>
</linearGradient>
<linearGradient id="paint3_linear" x1="81.4508" y1="13.4688" x2="15.5042" y2="13.4688" gradientUnits="userSpaceOnUse">
<stop stop-color="#008495"/>
<stop offset="0.11" stop-color="#008495"/>
<stop offset="0.93" stop-color="#134E9B"/>
<stop offset="1" stop-color="#134E9B"/>
</linearGradient>
<linearGradient id="paint4_linear" x1="81.4503" y1="19.9393" x2="15.5039" y2="19.9393" gradientUnits="userSpaceOnUse">
<stop stop-color="#008495"/>
<stop offset="0.11" stop-color="#008495"/>
<stop offset="0.93" stop-color="#134E9B"/>
<stop offset="1" stop-color="#134E9B"/>
</linearGradient>
<linearGradient id="paint5_linear" x1="81.4503" y1="19.9393" x2="15.5039" y2="19.9393" gradientUnits="userSpaceOnUse">
<stop stop-color="#008495"/>
<stop offset="0.11" stop-color="#008495"/>
<stop offset="0.93" stop-color="#134E9B"/>
<stop offset="1" stop-color="#134E9B"/>
</linearGradient>
<linearGradient id="paint6_linear" x1="81.4508" y1="19.9393" x2="15.5042" y2="19.9393" gradientUnits="userSpaceOnUse">
<stop stop-color="#008495"/>
<stop offset="0.11" stop-color="#008495"/>
<stop offset="0.93" stop-color="#134E9B"/>
<stop offset="1" stop-color="#134E9B"/>
</linearGradient>
<linearGradient id="paint7_linear" x1="81.4508" y1="19.9393" x2="15.5042" y2="19.9393" gradientUnits="userSpaceOnUse">
<stop stop-color="#008495"/>
<stop offset="0.11" stop-color="#008495"/>
<stop offset="0.93" stop-color="#134E9B"/>
<stop offset="1" stop-color="#134E9B"/>
</linearGradient>
<linearGradient id="paint8_linear" x1="81.4505" y1="13.4672" x2="15.5039" y2="13.4672" gradientUnits="userSpaceOnUse">
<stop stop-color="#008495"/>
<stop offset="0.11" stop-color="#008495"/>
<stop offset="0.93" stop-color="#134E9B"/>
<stop offset="1" stop-color="#134E9B"/>
</linearGradient>
<linearGradient id="paint9_linear" x1="81.4503" y1="13.4752" x2="15.5037" y2="13.4752" gradientUnits="userSpaceOnUse">
<stop stop-color="#008495"/>
<stop offset="0.11" stop-color="#008495"/>
<stop offset="0.93" stop-color="#134E9B"/>
<stop offset="1" stop-color="#134E9B"/>
</linearGradient>
</defs>
</svg>
