<svg width="39" height="50" viewBox="0 0 39 50" fill="none" xmlns="http://www.w3.org/2000/svg">
<g clip-path="url(#clip0)">
<path d="M6 22C5.44772 22 5 21.5523 5 21V6.38343C5 5.62676 5.80786 5.14422 6.47409 5.50295L15.2362 10.2209V6.38317C15.2362 5.62656 16.0439 5.14401 16.7102 5.50262L25.4758 10.2209V0.999999C25.4758 0.447714 25.9235 0 26.4758 0H33C33.5523 0 34 0.447715 34 1V21C34 21.5523 33.5523 22 33 22H6ZM6.62391 20.3468H32.3693V1.65315H27.0997V11.3022C27.0997 12.0601 26.2894 12.5426 25.6231 12.1813L16.8635 7.43227V11.3019C16.8635 12.0599 16.0531 12.5424 15.3867 12.181L6.63068 7.43227L6.62391 20.3468Z" fill="url(#paint0_linear)"/>
</g>
<g clip-path="url(#clip1)">
<path d="M10.6838 28H12.9934L13.8856 40.0254H11.38L10.9596 32.5503L8.26457 38.0024H5.62602L2.93098 32.5503L2.51061 40.0254H0L0.897243 28H3.2068L6.94529 35.7633L10.6838 28Z" fill="#134E9E"/>
<path d="M27.1781 40.0254H24.5196L23.6589 37.4966H18.6377L17.777 40.0254H15.1185L19.7559 28H22.5424L27.1781 40.0254ZM21.1483 30.0231L19.3206 35.4932H22.986L21.1483 30.0231Z" fill="#134E9E"/>
<path d="M36.4346 40.0254V34.9694H31.3751V40.0254H28.8097V28H31.3751V32.876H36.4346V28H39V40.0254H36.4346Z" fill="#134E9E"/>
<path d="M8.76968 48.7347L9.41934 45.8704H10.4761L9.313 50H8.26124L7.41218 46.8999L6.57476 50H5.52466L4.36157 45.8704H5.41168L6.05969 48.7347L6.84061 45.8704H7.98708L8.76968 48.7347Z" fill="#CECECE"/>
<path d="M14.4289 49.1996H12.8238L12.5663 50H11.5012L13.0631 45.8704H14.1963L15.7581 50H14.6931L14.4289 49.1996ZM13.088 48.3943H14.1647L13.6297 46.6478L13.088 48.3943Z" fill="#CECECE"/>
<path d="M18.5379 45.8704V49.1947H20.0798V50H17.5011V45.8704H18.5379Z" fill="#CECECE"/>
<path d="M22.8896 45.8704V49.1947H24.4315V50H21.8611V45.8704H22.8896Z" fill="#CECECE"/>
<path d="M26.2126 45.8704H28.8246V46.6773H27.2445V47.5071H28.7498V48.3141H27.2445V49.1947H28.8396V50H26.2126V45.8704Z" fill="#CECECE"/>
<path d="M33.7793 45.8704V46.6773H32.6611V50H31.6276V46.6773H30.5011V45.8704H33.7793Z" fill="#CECECE"/>
</g>
<defs>
<linearGradient id="paint0_linear" x1="19.5" y1="0" x2="19.5" y2="22" gradientUnits="userSpaceOnUse">
<stop stop-color="#008495"/>
<stop offset="0.11" stop-color="#008495"/>
<stop offset="0.93" stop-color="#134E9B"/>
<stop offset="1" stop-color="#134E9B"/>
</linearGradient>
<clipPath id="clip0">
<rect width="29" height="22" fill="white" transform="translate(5)"/>
</clipPath>
<clipPath id="clip1">
<rect width="39" height="22" fill="white" transform="translate(0 28)"/>
</clipPath>
</defs>
</svg>
